<?xml version="1.0" standalone="no"?>
<!DOCTYPE svg PUBLIC "-//W3C//DTD SVG 1.1//EN" "http://www.w3.org/Graphics/SVG/1.1/DTD/svg11.dtd" >
<svg xmlns="http://www.w3.org/2000/svg">
<metadata></metadata>
<defs>
<font id="sentinelblack" horiz-adv-x="1556" >
<font-face units-per-em="2048" ascent="1638" descent="-410" />
<missing-glyph horiz-adv-x="350" />
<glyph unicode="&#xfb01;" horiz-adv-x="1372" d="M31 782v176h170v9q0 150 71.5 256.5t191.5 157.5t275 51q202 0 298 -57t96 -150q0 -69 -53.5 -114.5t-141.5 -45.5q-92 0 -142.5 38.5t-50.5 108.5q0 57 29 86q-26 11 -55 11q-102 0 -147.5 -60t-45.5 -200v-91h666v-772h149v-186h-600v186h105v596h-299v-596h104v-186 h-585v186h135v596h-170z" />
<glyph unicode="&#xfb02;" horiz-adv-x="1404" d="M31 782v176h170v9q0 114 41 204t112.5 146.5t164 85.5t198.5 29q136 0 223 -33h2l270 28v-1241h150v-186h-610v186h114v596h-319v-596h115v-186h-596v186h135v596h-170zM526 958h340v109q-60 8 -92.5 43.5t-32.5 97.5q0 61 31 92q-32 9 -63 9q-41 0 -71.5 -10.5t-57 -37 t-40.5 -80t-14 -132.5v-91z" />
<glyph unicode="&#xfb03;" horiz-adv-x="2009" d="M31 782v176h170q0 114 41 204t112.5 146.5t164 85.5t198.5 29q224 0 307 -86q139 95 352 95q202 0 297.5 -57t95.5 -150q0 -69 -53 -114.5t-141 -45.5q-92 0 -142.5 38.5t-50.5 108.5q0 57 29 86q-26 11 -55 11q-102 0 -147.5 -60t-45.5 -200v-91h666v-772h149v-186h-600 v186h105v596h-299v-596h104v-186h-551v186h101v596h-291v-596h100v-186h-581v186h135v596h-170zM526 958h312v9q0 55 8 96q-105 25 -105 137q0 61 31 92q-28 8 -63 8q-41 0 -71.5 -10.5t-57 -37t-40.5 -80t-14 -132.5v-82z" />
<glyph unicode="&#xfb04;" horiz-adv-x="2041" d="M31 782v176h170q0 114 41 204t112.5 146.5t164 85.5t198.5 29q221 0 305 -84q137 93 332 93q136 0 223 -33h2l270 28v-1241h150v-186h-610v186h114v596h-319v-596h114v-186h-561v186h101v596h-291v-596h100v-186h-581v186h135v596h-170zM526 958h312v9q0 55 8 96 q-105 25 -105 137q0 61 31 92q-28 8 -63 8q-41 0 -71.5 -10.5t-57 -37t-40.5 -80t-14 -132.5v-82zM1163 958h340v109q-60 8 -92.5 43.5t-32.5 97.5q0 61 31 92q-32 9 -63 9q-41 0 -71.5 -10.5t-57 -37t-40.5 -80t-14 -132.5v-91z" />
<glyph horiz-adv-x="2048" />
<glyph horiz-adv-x="2048" />
<glyph unicode="&#xd;" horiz-adv-x="2048" />
<glyph unicode=" "  horiz-adv-x="350" />
<glyph unicode="&#x09;" horiz-adv-x="350" />
<glyph unicode="&#xa0;" horiz-adv-x="350" />
<glyph unicode="!" horiz-adv-x="634" d="M111 1202q0 90 53.5 144.5t152.5 54.5t153 -54.5t54 -144.5q0 -78 -41 -276q-56 -274 -88 -475h-155q-32 201 -88 475q-41 198 -41 276zM113 160q0 84 58.5 141t147.5 57q86 0 144.5 -56t58.5 -138q0 -84 -59 -141.5t-148 -57.5q-86 0 -144 56.5t-58 138.5z" />
<glyph unicode="&#x22;" horiz-adv-x="935" d="M100 823l21 234q8 86 15 126t24 83q19 49 57 79.5t86 30.5q65 0 113.5 -41.5t48.5 -107.5q0 -37 -10 -66q-23 -72 -101 -186l-137 -203zM510 823l39 244q20 134 49 205q19 48 55.5 76t81.5 28q65 0 113.5 -41.5t48.5 -107.5q0 -46 -12 -74q-37 -81 -111 -180l-147 -201z " />
<glyph unicode="#" horiz-adv-x="1398" d="M51 293v178h268l64 348h-262v178h295l65 361h199l-66 -361h287l66 361h200l-65 -361h235v-178h-268l-63 -348h262v-178h-295l-68 -375h-198l67 375h-287l-67 -375h-201l68 375h-236zM514 467h295l65 356h-294z" />
<glyph unicode="$" horiz-adv-x="1144" d="M25 285q0 71 48 118.5t120 47.5q67 0 113 -43.5t46 -108.5q0 -71 -49 -117q78 -37 199 -49v385q-65 16 -111 29.5t-96 32t-83 38t-65 46.5t-50 58.5t-29 73t-11 91.5q0 169 121 279t322 132v160h172v-155q99 -6 177 -27t124.5 -49t76.5 -64t41 -69t11 -66 q0 -73 -45.5 -120.5t-114.5 -47.5q-76 0 -122 41.5t-46 110.5q0 74 51 118q-48 32 -155 41v-366q89 -22 150.5 -43t119.5 -52.5t92.5 -69.5t55 -93t20.5 -125q0 -170 -116 -281.5t-320 -134.5v-180h-172v174q-126 6 -220.5 32.5t-148.5 67t-80 87t-26 98.5zM346 1008 q0 -66 39 -102.5t123 -61.5v327q-162 -25 -162 -163zM664 137q87 16 121 60.5t34 115.5q0 57 -40 95.5t-115 66.5v-338z" />
<glyph unicode="%" horiz-adv-x="1619" d="M18 829q0 88 35 174.5t92.5 151.5t135 105t157.5 40q134 0 207 -73q78 -35 199 -35q188 0 346 143h170l-905 -1388h-219l798 1173l-6 6q-110 -88 -244 -88q-47 0 -65 2v-6q0 -121 -54.5 -235t-149.5 -186t-202 -72q-128 0 -211.5 78t-83.5 210zM266 791q0 -59 25 -91 t69 -32q57 0 109.5 63t82.5 151t30 167q0 14 -2 20q-67 26 -127 86q-49 -19 -93 -81.5t-69 -139.5t-25 -143zM889 260q0 88 35 174.5t92.5 151.5t135 105t157.5 40q130 0 205 -71.5t75 -194.5q0 -121 -54.5 -235t-149 -186.5t-201.5 -72.5q-128 0 -211.5 78.5t-83.5 210.5z M1137 221q0 -59 25 -91t69 -32q57 0 109.5 63t82 151t29.5 167q0 54 -24.5 84.5t-67.5 30.5q-56 0 -109.5 -63t-83.5 -149t-30 -161z" />
<glyph unicode="&#x26;" horiz-adv-x="1548" d="M45 334q0 72 25.5 131t72 100t96.5 69t115 52q-81 79 -114 140.5t-33 148.5q0 134 119.5 235t308.5 101q91 0 165 -26t119 -68.5t69 -93t24 -103.5q0 -58 -19.5 -103t-59 -77.5t-81.5 -55t-104 -45.5q161 -155 284 -319q75 83 139 192h-133v191h463v-195h-141 q-101 -174 -230 -303q46 -60 76 -81t66 -21q38 0 61 29t43 104l125 -33q-15 -75 -37.5 -131t-59 -105t-93 -74.5t-131.5 -25.5q-101 0 -170.5 35t-141.5 121q-160 -156 -387 -156q-196 0 -316 100t-120 267zM379 395q0 -104 59.5 -162.5t163.5 -58.5q92 0 176 51 q-151 194 -332 371q-67 -73 -67 -201zM512 1053q0 -58 33.5 -107.5t113.5 -124.5q97 76 97 199q0 66 -33 106.5t-96 40.5q-49 0 -82 -31.5t-33 -82.5z" />
<glyph unicode="'" horiz-adv-x="507" d="M90 825l31 238q1 9 4 30.5t3.5 28t3 23.5t3.5 22.5t3 19t3.5 19t4 16t5 17.5t5.5 15.5t6 17.5q19 47 57 75.5t86 28.5q66 0 117 -43.5t51 -109.5q0 -31 -12 -66q-4 -11 -8.5 -21.5t-8 -18t-11 -20.5t-11 -19t-15 -22.5t-15.5 -22.5t-19.5 -28t-20.5 -30l-141 -203z" />
<glyph unicode="(" horiz-adv-x="821" d="M113 567q0 311 179.5 562.5t473.5 357.5l74 -131q-177 -131 -279 -323.5t-102 -444.5q0 -259 102.5 -459t278.5 -330l-74 -131q-296 108 -474.5 352t-178.5 547z" />
<glyph unicode=")" horiz-adv-x="821" d="M-18 -201q176 131 278 323.5t102 444.5q0 260 -102 459.5t-278 329.5l73 131q296 -108 475 -352t179 -547q0 -311 -180 -562.5t-474 -357.5z" />
<glyph unicode="*" horiz-adv-x="874" d="M83.5 871q6.5 44 47.5 73q61 44 238 66v30q-177 22 -238 66q-41 29 -47.5 73t25.5 87q31 41 74.5 49t84.5 -21q32 -23 62.5 -72t72.5 -137l27 9q-10 67 -14.5 105.5t-4.5 78t9 65.5q15 48 55 67.5t90 2.5q51 -17 71 -55t5 -88q-21 -68 -156 -193l17 -22q163 88 233 88 q51 0 82 -31.5t31 -85.5t-31 -85.5t-82 -31.5q-68 0 -231 88l-17 -22q133 -127 154 -193q15 -50 -5 -88t-71 -55q-50 -17 -90 2.5t-55 67.5q-9 26 -9 64.5t4.5 76.5t14.5 104l-27 9q-43 -87 -73.5 -135.5t-61.5 -71.5q-41 -29 -84.5 -21t-74.5 49q-32 43 -25.5 87z" />
<glyph unicode="+" horiz-adv-x="1075" d="M90 496v182h346v346h203v-346h346v-182h-346v-353h-203v353h-346z" />
<glyph unicode="," horiz-adv-x="546" d="M23 -244q133 55 205 122.5t89 156.5l-16 8q-30 -45 -92 -45q-63 0 -102 44.5t-39 119.5q0 87 54.5 148t141.5 61q102 0 163.5 -72t61.5 -197q0 -163 -109.5 -282.5t-307.5 -173.5z" />
<glyph unicode="-" horiz-adv-x="718" d="M92 410v223h535v-223h-535z" />
<glyph unicode="." horiz-adv-x="546" d="M70 166q0 87 58.5 146t147.5 59q86 0 144.5 -58t58.5 -143q0 -87 -59 -146t-148 -59q-86 0 -144 58t-58 143z" />
<glyph unicode="/" horiz-adv-x="870" d="M-137 -416l799 1878h223l-799 -1878h-223z" />
<glyph unicode="0" horiz-adv-x="1282" d="M74 643q0 161 43 292t119 217t179.5 132.5t225.5 46.5q254 0 410.5 -178.5t156.5 -497.5q0 -162 -42.5 -293t-118.5 -217t-179.5 -132t-226.5 -46q-254 0 -410.5 178.5t-156.5 497.5zM463 647q0 -144 12.5 -245t37.5 -158t57.5 -82t76.5 -25q58 0 94.5 45.5t57 160.5 t20.5 308q0 144 -12.5 245t-37.5 158t-57.5 82t-76.5 25q-58 0 -94.5 -45.5t-57 -160.5t-20.5 -308z" />
<glyph unicode="1" horiz-adv-x="1013" d="M72 995v160q150 -6 262.5 36t167.5 126h217v-1131h260v-186h-897v186h270v795q-42 -10 -104 -10q-92 0 -176 24z" />
<glyph unicode="2" horiz-adv-x="1187" d="M57 195q0 36 7 69.5t22.5 63.5t30.5 55t42 51t45 43.5t51 40.5t48.5 34t50 32.5t43.5 27.5q55 37 81.5 55.5t67 50t60 54.5t41 56t29.5 68t8 77q0 98 -47 151.5t-133 53.5q-60 0 -106.5 -24t-71.5 -67q55 -19 84.5 -60t29.5 -97q0 -71 -47 -119.5t-131 -48.5 q-85 0 -137.5 58.5t-52.5 150.5q0 68 35 132.5t98 115t160 81.5t210 31q245 0 384 -104t139 -273q0 -42 -9.5 -79.5t-21.5 -66.5t-38 -58t-45.5 -48t-58 -41.5t-59.5 -34t-67.5 -30.5t-66 -26t-68.5 -25q-22 -9 -71.5 -27.5t-71.5 -27t-62.5 -25.5t-60.5 -29t-50 -31.5 t-46.5 -37.5t-33 -42t-26.5 -51l10 -8q112 90 262 90q79 0 189 -30.5t157 -30.5q54 0 79 35t46 129l129 -10q-7 -260 -76 -371t-202 -111q-70 0 -129.5 24t-100 58.5t-76 69t-72 58.5t-73.5 24q-15 0 -39 -4q14 -11 26.5 -37t12.5 -58q0 -58 -38.5 -97.5t-104.5 -39.5 q-81 0 -133 63t-52 167z" />
<glyph unicode="3" horiz-adv-x="1150" d="M31 279q0 88 51 138t137 50q87 0 133.5 -43.5t46.5 -110.5q0 -47 -27.5 -85.5t-72.5 -57.5q16 -16 72.5 -27.5t126.5 -11.5q91 0 149 51.5t58 155.5q0 124 -65 173.5t-237 49.5h-59v182h59q156 0 218.5 52t62.5 178q0 98 -50 146t-155 48q-93 0 -147 -30q43 -19 69.5 -58 t26.5 -84q0 -68 -45.5 -111.5t-132.5 -43.5t-139 49t-52 133q0 133 139 221t367 88q246 0 383 -97t137 -241q0 -138 -94 -214.5t-301 -104.5v-10q215 -27 315.5 -105.5t100.5 -210.5q0 -168 -149 -274.5t-402 -106.5q-243 0 -383.5 88.5t-140.5 223.5z" />
<glyph unicode="4" horiz-adv-x="1253" d="M27 367v190l612 764h354v-762h238v-192h-238v-174h187v-193h-740v193h215v174h-628zM244 559h411v514h-12z" />
<glyph unicode="5" horiz-adv-x="1163" d="M68 252q0 85 52.5 139.5t141.5 54.5q80 0 124 -44.5t44 -104.5q0 -96 -80 -147q56 -29 137 -29q103 0 160.5 66.5t57.5 187.5q0 129 -55 187.5t-165 58.5q-47 0 -106.5 -22t-104.5 -58l-147 45l47 684l59 53q96 -32 218.5 -49t228.5 -17q109 0 184.5 18t161.5 60l61 -108 q-135 -271 -434 -271q-174 0 -329 58l-25 -314q141 111 332 111q101 0 182 -21t135 -57.5t90 -87.5t52 -107.5t16 -121.5q0 -91 -34 -171t-99 -142.5t-169.5 -99t-236.5 -36.5q-229 0 -364 75.5t-135 209.5z" />
<glyph unicode="6" horiz-adv-x="1230" d="M80 608q0 331 172.5 527t476.5 196q191 0 298.5 -78t107.5 -196q0 -81 -51.5 -134t-135.5 -53q-88 0 -134 46.5t-46 115.5q0 83 57 127q-33 25 -96 25q-142 0 -204 -114t-62 -390q40 58 120.5 93.5t172.5 35.5q182 0 297.5 -106.5t115.5 -292.5q0 -88 -34.5 -167.5 t-98 -141t-163 -98t-220.5 -36.5q-139 0 -249.5 50.5t-180.5 139t-106.5 203.5t-36.5 248zM469 403q0 -151 51 -217.5t131 -66.5q144 0 144 246q0 158 -42 221t-122 63q-76 0 -119 -61.5t-43 -184.5z" />
<glyph unicode="7" horiz-adv-x="1157" d="M66 776v541h196l23 -178h16q56 192 195 192q47 0 89 -22.5t72 -54.5t58 -64.5t59 -55t62 -22.5q10 0 18 4q-23 28 -23 72q0 67 41 105t115 38q72 0 117 -44t45 -109q0 -44 -20.5 -88.5t-40.5 -69.5t-60 -70q-41 -45 -72 -85.5t-72 -110t-72 -146.5t-62 -190t-52 -246 q-33 -205 -194 -205q-97 0 -153 49.5t-56 126.5q0 33 6 64t13 58t29 64t37.5 63.5t56.5 75t67.5 80t88.5 98t102.5 109t125.5 130.5l90 94l-12 12q-104 -76 -213 -76q-59 0 -158 35t-139 35q-53 0 -84 -44t-55 -165h-184z" />
<glyph unicode="8" horiz-adv-x="1208" d="M82 303q0 103 76 175t204 102q-58 22 -102 49t-82 66t-58 94.5t-20 125.5q0 176 143.5 296t370.5 120q121 0 216 -26t153 -70.5t87.5 -99t29.5 -115.5q0 -101 -72.5 -173t-193.5 -102q51 -18 92 -38t82 -50.5t69 -66t45 -84.5t17 -107q0 -188 -148.5 -310t-392.5 -122 q-125 0 -225.5 28.5t-163 76t-95 107t-32.5 124.5zM352 319q0 -92 66.5 -147t191.5 -55q98 0 155.5 43t57.5 116q0 39 -20 72.5t-50.5 57.5t-84 47.5t-103.5 39.5t-125 37q-88 -95 -88 -211zM418 1034q0 -46 21.5 -82t68 -63.5t101 -47.5t139.5 -44q79 88 79 192 q0 80 -61 136.5t-166 56.5q-83 0 -132.5 -42.5t-49.5 -105.5z" />
<glyph unicode="9" horiz-adv-x="1230" d="M61 881q0 92 34.5 173t98.5 143t163 98t221 36q139 0 249.5 -50.5t180.5 -139t106.5 -203.5t36.5 -248q0 -331 -172.5 -527t-476.5 -196q-202 0 -312 78.5t-110 198.5q0 83 51 135.5t135 52.5q88 0 134 -46.5t46 -115.5q0 -83 -57 -127q58 -28 113 -28q140 0 203 110.5 t63 376.5q-40 -58 -120.5 -93.5t-172.5 -35.5q-182 0 -298 108.5t-116 299.5zM436 926q0 -163 42 -228t122 -65q76 0 119 63t43 191q0 156 -51 224.5t-131 68.5q-144 0 -144 -254z" />
<glyph unicode=":" horiz-adv-x="579" d="M86 166q0 87 59 146t148 59q86 0 144.5 -58t58.5 -143q0 -87 -59 -146t-148 -59q-86 0 -144.5 58t-58.5 143zM86 745q0 87 59 146t148 59q86 0 144.5 -57.5t58.5 -142.5q0 -87 -59 -146t-148 -59q-86 0 -144.5 57.5t-58.5 142.5z" />
<glyph unicode=";" horiz-adv-x="579" d="M39 -244q133 55 205.5 122.5t89.5 156.5l-17 8q-30 -45 -92 -45q-63 0 -102 44.5t-39 119.5q0 87 55 148t142 61q102 0 163.5 -72t61.5 -197q0 -163 -110 -282.5t-308 -173.5zM86 745q0 87 59 146t148 59q86 0 144.5 -57.5t58.5 -142.5q0 -87 -59 -146t-148 -59 q-86 0 -144.5 57.5t-58.5 142.5z" />
<glyph unicode="&#x3c;" horiz-adv-x="1073" d="M147 481v209l781 361v-220l-586 -247l586 -248v-215z" />
<glyph unicode="=" horiz-adv-x="1075" d="M111 281v198h854v-198h-854zM111 692v199h854v-199h-854z" />
<glyph unicode="&#x3e;" horiz-adv-x="1073" d="M145 121v219l586 248l-586 248v215l781 -361v-209z" />
<glyph unicode="?" horiz-adv-x="1048" d="M29 1053q0 146 128.5 247t348.5 101q221 0 353 -105t132 -264q0 -62 -15.5 -111.5t-45 -86t-59 -60.5t-70.5 -49q-42 -26 -64.5 -40t-56.5 -40t-54 -48.5t-40.5 -55.5t-32.5 -70h-168q-1 103 26.5 175t84.5 157q38 58 53 83t30 70t15 93q0 188 -176 188q-51 0 -92 -15.5 t-60 -43.5q59 -18 93 -59.5t34 -100.5q0 -71 -46.5 -118.5t-129.5 -47.5q-84 0 -136 54t-52 147zM266 160q0 84 59 141t148 57q86 0 144.5 -56t58.5 -138q0 -84 -59 -141.5t-148 -57.5q-86 0 -144.5 56.5t-58.5 138.5z" />
<glyph unicode="@" horiz-adv-x="1839" d="M76 496q0 198 73.5 370.5t198.5 292t295.5 188t360.5 68.5q225 0 401.5 -85t278.5 -248.5t102 -379.5q0 -140 -39.5 -255t-105.5 -189t-151 -114t-177 -40q-61 0 -112 13t-92 39.5t-63.5 72t-21.5 105.5l-18 8q-102 -227 -273 -227q-138 0 -205 86.5t-67 222.5 q0 126 48.5 254t121.5 201q58 58 115 83t133 25q80 0 136 -50t75 -122l40 154h289l-145 -518q-29 -95 -5.5 -143t107.5 -48q68 0 130.5 60t101.5 162.5t39 217.5q0 180 -84 317t-231 209t-335 72q-162 0 -306.5 -60t-249 -164.5t-165.5 -252.5t-61 -317q0 -214 94 -374.5 t263 -245.5t389 -85q152 0 275 39.5t239 116.5l61 -100q-259 -172 -580 -172q-259 0 -457.5 97t-310.5 282t-112 434zM764 432q0 -127 88 -127q45 0 86.5 41t69 101t43.5 125.5t16 117.5q0 63 -26 99t-76 36q-47 0 -87.5 -46.5t-64 -112.5t-36.5 -129t-13 -105z" />
<glyph unicode="A" d="M2 0v197h150l417 1159h392l423 -1159h150v-197h-741v197h170l-72 215h-449l-71 -215h170v-197h-539zM502 592h327l-159 483h-8z" />
<glyph unicode="B" horiz-adv-x="1427" d="M51 0v197h166v954h-166v197h727q131 0 231.5 -19.5t160.5 -50.5t98 -75t51.5 -87.5t13.5 -93.5q0 -118 -89 -200.5t-281 -110.5v-15q213 -26 312 -107t99 -222q0 -81 -31 -145.5t-97 -115.5t-180.5 -78.5t-270.5 -27.5h-744zM604 197h135q139 0 191.5 44.5t52.5 161.5 q0 98 -56.5 146.5t-191.5 48.5h-131v-401zM604 795h129q117 0 165 47t48 141q0 92 -44.5 130t-166.5 38h-131v-356z" />
<glyph unicode="C" horiz-adv-x="1439" d="M72 659q0 159 53 295.5t142.5 229t209.5 144.5t252 52q260 0 387 -161l45 157h205v-540h-236q-59 190 -141.5 276t-206.5 86q-69 0 -121.5 -27.5t-92.5 -87t-60.5 -160t-20.5 -239.5q0 -266 90.5 -385t260.5 -119q134 0 215.5 94t111.5 265h219q-28 -269 -175 -420.5 t-425 -151.5q-327 0 -519.5 187t-192.5 505z" />
<glyph unicode="D" horiz-adv-x="1564" d="M51 0v197h166v954h-166v197h619q208 0 366 -47.5t258 -136.5t149.5 -211.5t49.5 -276.5q0 -155 -50 -278t-149.5 -212.5t-255.5 -137.5t-360 -48h-627zM604 190h98q209 0 291 106t82 378q0 266 -86 374.5t-297 108.5h-88v-967z" />
<glyph unicode="E" horiz-adv-x="1474" d="M51 0v197h166v954h-166v197h1321v-498h-211q-17 105 -32.5 160.5t-45 91t-68.5 45.5t-110 10h-301v-383h98q72 0 91.5 29t37.5 151h183v-551h-183q-14 118 -36 149.5t-93 31.5h-98v-394h293q48 0 83 6t62.5 16t46.5 32t33 46t24.5 67.5t17.5 86t16 111.5h211v-555h-1340z " />
<glyph unicode="F" horiz-adv-x="1413" d="M51 0v197h166v954h-166v197h1295v-508h-211q-16 87 -33 142t-37.5 91.5t-52 54t-67 23.5t-93.5 6h-248v-407h74q72 0 91.5 29t37.5 151h182v-557h-182q-14 122 -35.5 154t-93.5 32h-74v-362h213v-197h-766z" />
<glyph unicode="G" horiz-adv-x="1566" d="M72 670q0 153 55 287.5t147 226t212.5 144t250.5 52.5q248 0 375 -172l47 168h207v-520h-272q-52 183 -125.5 262.5t-186.5 79.5q-134 0 -214.5 -128t-80.5 -386q0 -249 74.5 -381.5t224.5 -132.5q93 0 152 59q76 76 76 250v31h-217v197h741v-197h-143v-526h-207l-88 211 q-102 -228 -377 -228q-139 0 -259 50t-206.5 140.5t-136 222.5t-49.5 290z" />
<glyph unicode="H" horiz-adv-x="1695" d="M51 0v197h166v954h-166v197h731v-197h-178v-354h488v354h-179v197h732v-197h-166v-954h166v-197h-732v197h179v403h-488v-403h178v-197h-731z" />
<glyph unicode="I" horiz-adv-x="882" d="M76 0v197h172v954h-172v197h731v-197h-172v-954h172v-197h-731z" />
<glyph unicode="J" horiz-adv-x="1226" d="M25 336q0 101 61 168t156 67q81 0 130.5 -46.5t49.5 -131.5q0 -63 -31 -111t-86 -75q55 -62 166 -62q87 0 133.5 57t46.5 158v791h-190v197h745v-197h-166v-686q0 -234 -126.5 -366t-381.5 -132q-236 0 -371.5 101t-135.5 268z" />
<glyph unicode="K" horiz-adv-x="1562" d="M51 0v197h166v954h-166v197h719v-193h-166v-475l488 475h-164v193h588v-197h-164l-330 -320l451 -634h133v-197h-719v193h141l-268 401l-156 -150v-251h156v-193h-709z" />
<glyph unicode="L" horiz-adv-x="1327" d="M51 0v197h166v954h-166v197h746v-191h-193v-967h209q43 0 70.5 4.5t54 20.5t43.5 40t36.5 71t36 104.5t38.5 149.5h186v-580h-1227z" />
<glyph unicode="M" horiz-adv-x="1982" d="M51 0v197h162v954h-162v197h688l269 -760h8l239 760h676v-197h-166v-954h166v-197h-717v197h164v901h-18l-381 -1100h-152l-399 1100h-18v-901h159v-197h-518z" />
<glyph unicode="N" horiz-adv-x="1605" d="M51 0v197h162v954h-162v197h629l524 -926h19v729h-172v197h530v-197h-162v-1163h-413l-578 1018h-18v-809h172v-197h-531z" />
<glyph unicode="O" d="M72 670q0 212 92 374.5t252 249t362 86.5q207 0 367 -84.5t250 -244.5t90 -373t-92 -375.5t-252 -249t-363 -86.5q-207 0 -367 84.5t-249.5 244.5t-89.5 374zM487 674q0 -277 74.5 -400.5t224.5 -123.5q148 0 215.5 121.5t67.5 402.5q0 276 -74.5 400t-224.5 124 q-148 0 -215.5 -122t-67.5 -402z" />
<glyph unicode="P" horiz-adv-x="1396" d="M51 0v197h166v954h-166v197h705q308 0 453 -110t145 -310q0 -196 -147 -308t-451 -112h-152v-311h178v-197h-731zM604 700h121q124 0 173.5 53t49.5 179q0 128 -48 178.5t-175 50.5h-121v-461z" />
<glyph unicode="Q" d="M72 670q0 212 92 374.5t252 249t362 86.5q207 0 367 -84.5t250 -244.5t90 -373q0 -169 -71.5 -312t-196.5 -239q37 -84 66 -112.5t73 -28.5q46 0 67.5 32t38.5 125h137q-16 -210 -94 -296.5t-217 -86.5q-130 0 -202 54t-132 186q-90 -23 -176 -23q-207 0 -367 84 t-249.5 242t-89.5 367zM487 674q0 -115 12.5 -201.5t30.5 -122.5q26 100 91.5 160.5t166.5 60.5q94 0 158.5 -43.5t110.5 -138.5q22 116 22 285q0 277 -76 400.5t-233 123.5q-148 0 -215.5 -122t-67.5 -402zM602 250q0 -100 184 -100q48 0 93 10q-39 103 -78.5 149.5 t-98.5 46.5q-45 0 -72.5 -32t-27.5 -74z" />
<glyph unicode="R" horiz-adv-x="1529" d="M51 0v197h166v954h-166v197h776q118 0 213 -19t157.5 -51t104.5 -76t60 -91.5t18 -100.5q0 -67 -22.5 -120.5t-73.5 -98t-139.5 -74t-212.5 -41.5v-12q197 -10 284.5 -88.5t92.5 -213.5l2 -51q3 -68 17 -91t46 -23q23 0 42 30.5t38 106.5l133 -37q-15 -74 -38.5 -130 t-62 -102.5t-98 -71t-137.5 -24.5q-182 0 -259 93.5t-77 281.5v31q0 117 -36 163t-134 46h-141v-387h178v-197h-731zM604 770h162q106 0 156.5 43.5t50.5 153.5q0 106 -43 150t-164 44h-162v-391z" />
<glyph unicode="S" horiz-adv-x="1294" d="M84 -29v504h205q49 -161 146 -240t265 -79q102 0 158.5 44t56.5 115q0 26 -8.5 46t-30.5 36.5t-44 28t-65.5 24t-78 21.5t-97.5 23q-6 1 -9 2q-57 13 -99 24t-96.5 31t-93 42t-78.5 55.5t-64.5 73t-40.5 94.5t-16 120q0 132 69 234.5t181 156t246 53.5q117 0 206.5 -40 t141.5 -111l43 147h199v-483h-205q-52 157 -131 228t-213 71q-99 0 -154 -46.5t-55 -111.5q0 -75 87 -117q55 -26 232 -67q16 -4 25 -6q57 -13 98 -24.5t94.5 -31t90.5 -41t76.5 -54.5t63 -71.5t39 -91.5t15.5 -116q0 -199 -142.5 -323t-371.5 -124q-126 0 -233.5 48 t-165.5 122l-47 -166h-199z" />
<glyph unicode="T" horiz-adv-x="1447" d="M47 778v570h1354v-570h-191q-18 93 -31 150.5t-30 106.5t-33 73.5t-41 42t-53 22.5t-70 5h-34v-981h200v-197h-788v197h200v981h-34q-42 0 -70 -5t-53 -22.5t-41 -42t-33 -73.5t-30 -106.5t-31 -150.5h-191z" />
<glyph unicode="U" horiz-adv-x="1542" d="M31 1151v197h735v-197h-182v-627q0 -179 70 -253t214 -74q134 0 205 71q84 84 84 293v590h-168v197h533v-197h-158v-649q0 -113 -32.5 -208t-97.5 -169t-173 -116t-250 -42q-309 0 -461.5 134t-152.5 386v664h-166z" />
<glyph unicode="V" d="M23 1151v197h741v-197h-170l291 -829h12l289 829h-170v197h538v-197h-149l-434 -1159h-359l-440 1159h-149z" />
<glyph unicode="W" horiz-adv-x="2248" d="M23 1151v197h722v-193h-139l215 -809h15l233 619l-57 190h-138v193h695v-193h-148l224 -803h14l213 803h-168v193h543v-197h-158l-348 -1159h-375l-211 702l-260 -702h-371l-338 1159h-163z" />
<glyph unicode="X" horiz-adv-x="1499" d="M8 1151v197h742v-193h-148l211 -297l256 297h-145v193h549v-197h-152l-369 -410l414 -544h135v-197h-741v193h147l-221 319l-264 -319h145v-193h-549v197h152l377 434l-404 520h-135z" />
<glyph unicode="Y" horiz-adv-x="1411" d="M0 1151v197h729v-193h-139l231 -393l234 393h-156v193h539v-197h-146l-379 -590v-364h172v-197h-731v197h172v335l-397 619h-129z" />
<glyph unicode="Z" horiz-adv-x="1363" d="M45 0v186l797 971h-295q-43 0 -70.5 -4t-54 -19.5t-43.5 -38t-36 -67t-35 -99.5t-38 -141h-186v560h1208v-187l-800 -971h342q43 0 70.5 4.5t54 20.5t43.5 39.5t36 71t35.5 105t38.5 149.5h186v-580h-1253z" />
<glyph unicode="[" horiz-adv-x="770" d="M154 -330v1817h626v-172h-309v-1471h309v-174h-626z" />
<glyph unicode="\" horiz-adv-x="870" d="M-12 1462h223l799 -1878h-224z" />
<glyph unicode="]" horiz-adv-x="770" d="M-10 -156h309v1471h-309v172h626v-1817h-626v174z" />
<glyph unicode="^" horiz-adv-x="796" d="M18 983l281 485h203l276 -485h-205l-176 223l-174 -223h-205z" />
<glyph unicode="_" horiz-adv-x="921" d="M-4 0v197h930v-197h-930z" />
<glyph unicode="`" horiz-adv-x="575" d="M66 1419q0 54 42.5 94.5t104.5 40.5q34 0 61.5 -12t46.5 -29.5t38 -49.5t31.5 -60t29.5 -74l88 -231h-148l-159 123q-70 53 -102.5 96t-32.5 102z" />
<glyph unicode="a" horiz-adv-x="1173" d="M45 238q0 95 68 163q48 48 140.5 82t278.5 58q81 10 97 15t16 19v80q0 90 -41.5 130t-128.5 40q-61 0 -108 -20q45 -39 45 -107q0 -56 -45.5 -93.5t-112.5 -37.5q-82 0 -125 44.5t-43 111.5q0 89 71 151.5t177 89.5t235 27q117 0 200 -26.5t129 -76.5t66.5 -112 t20.5 -141v-420q0 -31 11.5 -42t33.5 -11q40 0 60 102l112 -28q-27 -135 -90 -197t-180 -62q-101 0 -166 54t-82 166h-10q-49 -120 -128.5 -170t-197.5 -50q-131 0 -217 71t-86 190zM393 283q0 -47 29 -80t88 -33q66 0 100.5 59t34.5 160v66q-8 -2 -36.5 -7t-55.5 -10 q-88 -16 -124 -54.5t-36 -100.5z" />
<glyph unicode="b" horiz-adv-x="1216" d="M6 1231v186h481v-639q94 213 301 213q146 0 246 -100q131 -131 131 -406q0 -270 -137 -407q-101 -101 -256 -101q-245 0 -348 207l-105 -198h-178v1245h-135zM463 469q0 -139 45.5 -223t136.5 -84q82 0 117 77.5t35 239.5q0 152 -35.5 224.5t-118.5 72.5q-88 0 -134 -86 t-46 -221z" />
<glyph unicode="c" horiz-adv-x="1079" d="M51 467q0 236 150.5 380t396.5 144q110 0 197.5 -29.5t138.5 -77.5t77.5 -105t26.5 -117q0 -82 -46 -132.5t-130 -50.5q-77 0 -121.5 45t-44.5 111q0 49 25.5 82.5t64.5 48.5q-49 59 -145 59q-100 0 -161.5 -90.5t-61.5 -247.5q0 -144 57 -229.5t164 -85.5q154 0 211 166 h186q-33 -163 -144 -262t-296 -99q-254 0 -399.5 132.5t-145.5 357.5z" />
<glyph unicode="d" horiz-adv-x="1253" d="M49 483q0 271 137 408q100 100 250 100q192 0 291 -164v404h-145v186h491v-1231h135v-186h-456v205q-43 -105 -124 -166.5t-202 -61.5q-145 0 -246 101q-131 131 -131 405zM418 473q0 -153 36.5 -225t123.5 -72q84 0 129 86.5t45 220.5q0 140 -43 224t-131 84 q-86 0 -123 -78.5t-37 -239.5z" />
<glyph unicode="e" horiz-adv-x="1116" d="M51 475q0 222 148.5 369t373.5 147q251 0 375 -149q112 -134 112 -357q0 -25 -1 -51h-653q4 -81 21.5 -135.5t49 -85t72 -43t96.5 -12.5q86 0 138 38.5t79 125.5h185q-25 -161 -134.5 -253t-320.5 -92q-248 0 -394.5 135t-146.5 363zM406 575h319q-6 148 -43.5 206.5 t-112.5 58.5q-74 0 -115 -60.5t-48 -204.5z" />
<glyph unicode="f" horiz-adv-x="817" d="M31 782v176h170v39q0 103 37.5 186.5t103 137.5t151.5 82.5t185 28.5q160 0 236.5 -55t76.5 -150q0 -70 -46.5 -116t-119.5 -46t-116 38t-43 107q0 59 34 90q-22 9 -43 9q-62 0 -96.5 -47.5t-34.5 -161.5v-142h297v-176h-276v-596h198v-186h-679v186h135v596h-170z" />
<glyph unicode="g" horiz-adv-x="1105" d="M-6 -154q0 148 239 183v10q-86 13 -135 63.5t-49 116.5q0 83 74 143t194 70q-117 22 -180 86.5t-63 169.5q0 131 112 217t320 86q100 0 180 -18q32 108 107.5 169.5t177.5 61.5q97 0 144.5 -46t47.5 -111q0 -59 -39 -98.5t-106 -39.5q-57 0 -92 34.5t-35 86.5q0 4 1 13.5 t1 13.5q-70 -13 -105 -117q166 -78 166 -258q0 -151 -107.5 -231t-320.5 -80q-20 0 -68 2t-65 2q-44 0 -71 -18t-27 -46q0 -31 34.5 -46t116.5 -15h271q194 0 285.5 -70t91.5 -196q0 -79 -35.5 -141t-109.5 -108.5t-197.5 -71.5t-290.5 -25q-244 0 -355.5 53t-111.5 155z M205 -111q0 -100 297 -100q284 0 284 119q0 72 -170 72h-254q-77 0 -117 -26.5t-40 -64.5zM397 674q0 -100 29 -148.5t92 -48.5q59 0 85 47t26 150q0 200 -119 200q-60 0 -86.5 -48.5t-26.5 -151.5z" />
<glyph unicode="h" horiz-adv-x="1323" d="M45 0v186h135v1045h-135v186h481v-657q102 231 322 231q164 0 237.5 -96t73.5 -260v-449h133v-186h-577v186h98v420q0 94 -41 135q-31 31 -88 31q-66 0 -112 -59t-46 -146v-381h95v-186h-576z" />
<glyph unicode="i" horiz-adv-x="731" d="M55 0v186h150v596h-150v187h496v-783h149v-186h-645zM158 1270q0 83 57 138.5t147 55.5q91 0 148 -53t57 -133q0 -83 -57.5 -139t-147.5 -56q-91 0 -147.5 53t-56.5 134z" />
<glyph unicode="j" horiz-adv-x="749" d="M-145 -180q0 62 42.5 104.5t114.5 42.5q80 0 124 -43.5t44 -103.5q0 -38 -12 -62q16 -4 31 -4q25 2 36 19.5t11 66.5v942h-170v187h516v-885q0 -221 -111.5 -333.5t-310.5 -112.5q-151 0 -233 50t-82 132zM199 1270q0 83 57 138.5t147 55.5q91 0 148 -53t57 -133 q0 -83 -57.5 -139t-147.5 -56q-91 0 -147.5 53t-56.5 134z" />
<glyph unicode="k" horiz-adv-x="1267" d="M45 0v186h135v1045h-135v186h481v-903l314 272h-150v183h518v-187h-145l-199 -170l312 -426h100v-186h-563v182h104l-174 252l-117 -102v-150h97v-182h-578z" />
<glyph unicode="l" horiz-adv-x="731" d="M43 0v186h150v1045h-150v186h496v-1231h149v-186h-645z" />
<glyph unicode="m" horiz-adv-x="1925" d="M55 0v186h135v596h-135v187h457v-258q93 280 336 280t285 -260q95 260 327 260q157 0 229 -96t72 -260v-449h133v-186h-569v186h90v420q0 96 -41 137q-29 29 -78 29q-60 0 -103.5 -59.5t-43.5 -145.5v-381h86v-186h-522v186h90v420q0 96 -41 137q-29 29 -78 29 q-60 0 -103.5 -59.5t-43.5 -145.5v-381h86v-186h-568z" />
<glyph unicode="n" horiz-adv-x="1333" d="M55 0v186h135v596h-135v187h457v-258q93 280 346 280q164 0 237.5 -96t73.5 -260v-449h134v-186h-578v186h98v420q0 94 -41 135q-31 31 -88 31q-66 0 -111.5 -59t-45.5 -146v-381h94v-186h-576z" />
<glyph unicode="o" horiz-adv-x="1181" d="M51 479q0 148 72 265.5t195.5 182t273.5 64.5q235 0 386.5 -139t151.5 -363q0 -223 -155 -367.5t-385 -144.5q-235 0 -387 139t-152 363zM428 483q0 -193 39 -273.5t129 -80.5q87 0 122.5 80.5t35.5 275.5q0 193 -39 274t-129 81q-87 0 -122.5 -81t-35.5 -276z" />
<glyph unicode="p" horiz-adv-x="1247" d="M45 -150h135v932h-135v187h457v-232q95 254 321 254q142 0 242 -100q131 -131 131 -389t-133 -391q-111 -111 -252 -111q-101 0 -174.5 41.5t-110.5 110.5v-302h168v-186h-649v186zM502 479q0 -133 46 -215t140 -82q73 0 106 76.5t33 230.5q0 144 -35 215.5t-114 71.5 q-85 0 -130.5 -84.5t-45.5 -212.5z" />
<glyph unicode="q" horiz-adv-x="1208" d="M51 489q0 129 37 231t102 167q104 104 275 104q207 0 313 -221l111 213h178v-1133h135v-186h-649v186h168v336q-46 -87 -118 -136.5t-165 -49.5q-82 0 -143 24t-113 76q-131 131 -131 389zM420 487q0 -145 35.5 -215.5t119.5 -70.5q81 0 125.5 85t44.5 212 q0 132 -44.5 214.5t-131.5 82.5q-81 0 -115 -76.5t-34 -231.5z" />
<glyph unicode="r" horiz-adv-x="1032" d="M55 0v186h135v596h-135v187h457v-260q46 139 124.5 210.5t184.5 71.5q91 0 149 -59.5t58 -140.5q0 -85 -50.5 -140t-125.5 -55q-76 0 -124 41.5t-48 114.5q0 1 1 4t1 4q-37 -8 -78.5 -48.5t-66.5 -117.5v-408h178v-186h-660z" />
<glyph unicode="s" horiz-adv-x="1026" d="M63 -18v352h173q74 -93 158.5 -147t164.5 -54q111 0 111 82q0 52 -47.5 79.5t-194.5 63.5q-184 45 -268 114t-84 198q0 136 98.5 228.5t261.5 92.5q184 0 295 -121l37 117h176v-332h-172q-62 82 -140 133.5t-147 51.5q-108 0 -108 -82q0 -46 45.5 -70.5t189.5 -60.5 q87 -22 146 -45t112.5 -60t80 -91t26.5 -128q0 -139 -99.5 -232.5t-275.5 -93.5q-204 0 -328 138l-36 -133h-175z" />
<glyph unicode="t" horiz-adv-x="892" d="M6 782v176h174v222l336 41v-263h307v-176h-307v-454q0 -66 24 -102t70 -36t70 39.5t51 149.5l135 -33q-31 -195 -113 -282t-243 -87q-172 0 -256 89t-84 274v442h-164z" />
<glyph unicode="u" horiz-adv-x="1314" d="M31 782v187h479v-607q0 -96 41 -137q28 -28 84 -28q64 0 108.5 58.5t44.5 145.5v381h-133v187h480v-783h135v-186h-457v258q-93 -281 -342 -281q-161 0 -234 96.5t-73 260.5v448h-133z" />
<glyph unicode="v" horiz-adv-x="1220" d="M6 782v187h645v-187h-141l188 -555h11l204 555h-116v187h432v-187h-119l-324 -788h-344l-313 788h-123z" />
<glyph unicode="w" horiz-adv-x="1796" d="M27 782v187h587v-183h-104l145 -540h9l163 483l-18 57h-102v183h565v-183h-107l154 -538h8l137 538h-100v183h424v-187h-127l-231 -788h-361l-156 477l-159 -477h-369l-235 788h-123z" />
<glyph unicode="x" horiz-adv-x="1163" d="M18 782v187h605v-183h-105l129 -174l156 174h-90v183h411v-187h-98l-268 -264l270 -332h117v-186h-608v182h108l-131 185l-162 -185h94v-182h-415v186h98l277 275l-271 321h-117z" />
<glyph unicode="y" horiz-adv-x="1202" d="M2 782v187h645v-187h-139l215 -463l176 463h-117v187h428v-187h-114l-328 -753q-25 -58 -46.5 -100.5t-51.5 -91t-64 -81.5t-76.5 -61.5t-96 -42.5t-116.5 -14q-141 0 -216.5 65t-75.5 170q0 83 47.5 135.5t124.5 52.5q81 0 124.5 -53.5t43.5 -126.5q0 -42 -19 -82 q67 5 110.5 42t84.5 132l-414 809h-125z" />
<glyph unicode="z" horiz-adv-x="1046" d="M51 0v156l551 659h-153q-41 0 -64 -3.5t-48.5 -16.5t-42.5 -40.5t-35 -73t-36 -116.5h-153v404h913v-156l-553 -659h180q51 0 77.5 6t55.5 32t50 79.5t45 146.5h153v-418h-940z" />
<glyph unicode="{" horiz-adv-x="821" d="M39 477v203h51q131 0 184.5 42t53.5 128q0 38 -14.5 144t-14.5 157q0 167 131 251t410 85v-172q-91 -9 -137 -30t-63 -58.5t-17 -108.5q0 -40 6 -128.5t6 -125.5q0 -74 -16 -121t-58.5 -78t-102 -47.5t-159.5 -29.5v-19q100 -13 159.5 -29.5t102 -47.5t58.5 -78t16 -121 q0 -37 -6 -126t-6 -128q0 -71 17 -108.5t63 -58.5t137 -30v-172q-279 1 -410 85t-131 251q0 51 14.5 157t14.5 144q0 86 -53.5 128t-184.5 42h-51z" />
<glyph unicode="|" horiz-adv-x="595" d="M195 -416v1878h206v-1878h-206z" />
<glyph unicode="}" horiz-adv-x="821" d="M-18 -158q91 9 137 30t63 58.5t17 108.5q0 39 -6.5 128t-6.5 126q0 74 16 121t58.5 78t102 47.5t159.5 29.5v19q-100 13 -159.5 29.5t-102 47.5t-58.5 78t-16 121q0 36 6.5 125t6.5 129q0 71 -17 108.5t-63 58.5t-137 30v172q279 -1 409.5 -85t130.5 -251q0 -51 -14 -157 t-14 -144q0 -86 53 -128t184 -42h51v-203h-51q-131 0 -184 -42t-53 -128q0 -38 14 -144t14 -157q0 -167 -130.5 -251t-409.5 -85v172z" />
<glyph unicode="~" horiz-adv-x="882" d="M63 481q11 185 65 274t177 89q54 0 110 -25t103.5 -49.5t81.5 -24.5q28 0 42.5 23.5t25.5 83.5h151q-11 -185 -64.5 -274t-176.5 -89q-43 0 -88 15.5t-76 34t-67 34t-64 15.5t-42.5 -23.5t-25.5 -83.5h-152z" />
<glyph unicode="&#xa1;" horiz-adv-x="634" d="M111 164q0 78 41 276q56 274 88 475h155q32 -201 88 -475q41 -198 41 -276q0 -90 -54 -144.5t-153 -54.5t-152.5 54.5t-53.5 144.5zM113 1202q0 84 58.5 141.5t147.5 57.5q86 0 144.5 -56.5t58.5 -138.5q0 -84 -59 -141t-148 -57q-86 0 -144 56t-58 138z" />
<glyph unicode="&#xa2;" horiz-adv-x="1159" d="M51 467q0 217 142 359t382 161l15 172l178 -8l-14 -168q168 -26 269 -114.5t101 -206.5q0 -81 -44.5 -129t-123.5 -48q-74 0 -118.5 41.5t-44.5 102.5q0 96 79 145q-49 57 -143 66l-47 -686q163 0 229 184h187q-32 -152 -132 -247t-282 -109l-12 -193l-178 8l10 189 q-217 26 -335 153t-118 328zM397 487q0 -136 32 -214.5t101 -104.5l45 670q-91 -20 -134.5 -106.5t-43.5 -244.5z" />
<glyph unicode="&#xa3;" horiz-adv-x="1310" d="M41 162q0 104 79.5 167.5t223.5 63.5q47 0 119 -10q-11 78 -55 158h-302v178h203q-45 88 -45 172q0 193 154.5 316.5t392.5 123.5q177 0 294.5 -79t117.5 -199q0 -85 -54 -143t-135 -58q-78 0 -123 48t-45 112q0 46 22 85.5t60 63.5q-46 39 -149 39q-95 0 -142 -45.5 t-47 -126.5q0 -36 11 -79t23.5 -73.5t34.5 -80.5t32 -76h315v-178h-278q-5 -108 -86 -205q17 -5 58 -18t52.5 -16.5t41.5 -12.5t41 -11t33.5 -7.5t36.5 -6.5t32.5 -2.5t37.5 -1.5q57 0 88 41.5t58 147.5l129 -11q0 -247 -64.5 -359t-224.5 -112q-103 0 -201 46t-235 143 q-50 -98 -115.5 -143.5t-161.5 -45.5q-104 0 -165.5 53.5t-61.5 141.5zM201 168q0 -32 20 -52t58 -20q51 0 91 28.5t74 92.5q-73 33 -139 33q-46 0 -75 -21.5t-29 -60.5z" />
<glyph unicode="&#xa5;" horiz-adv-x="1310" d="M14 1106v192h662v-188h-133l223 -356l205 356h-135v188h487v-192h-143l-248 -383h248v-164h-340v-102h340v-164h-340v-109h170v-184h-682v184h172v109h-342v164h342v102h-342v164h241l-262 383h-123z" />
<glyph unicode="&#xa7;" horiz-adv-x="1116" d="M45 498q0 94 65.5 165t186.5 105v14q-80 32 -129 92.5t-49 139.5q0 78 39 143t105 107.5t152.5 66t182.5 23.5q193 0 305.5 -67t112.5 -167q0 -65 -44.5 -109t-117.5 -44q-76 0 -123 38.5t-47 102.5q0 52 33 88q-56 27 -129 27q-92 0 -139.5 -33.5t-47.5 -89.5t64.5 -90 t232.5 -86q47 -14 77.5 -24.5t73.5 -28t71 -33.5t59.5 -40t49.5 -50t30 -60.5t12 -73.5q0 -95 -63.5 -165t-184.5 -105v-14q87 -34 139 -96t52 -148q0 -108 -66 -188.5t-172.5 -120t-236.5 -39.5q-211 0 -335 72.5t-124 179.5q0 68 46 114t116 46q74 0 122 -40.5t48 -103.5 q0 -62 -41 -100q65 -37 174 -37q91 0 138.5 33.5t47.5 87.5q0 25 -8 45t-27.5 37.5t-41 31t-62 29t-75.5 27.5t-95 30q-47 14 -79 24.5t-75 28t-71.5 33.5t-59.5 40t-49.5 49.5t-30.5 59.5t-12 73zM326 602q0 -18 5.5 -33.5t18.5 -29t25.5 -24.5t37 -22.5t41.5 -19t50.5 -19 t52.5 -17t59 -17.5l93 -29q82 44 82 119q0 23 -10 43.5t-31 37.5t-44 30t-60 27t-66.5 23t-75.5 23l-92 29q-86 -45 -86 -121z" />
<glyph unicode="&#xa8;" horiz-adv-x="843" d="M33 1253q0 74 50 125.5t126 51.5q77 0 125.5 -47.5t48.5 -120.5q0 -75 -49 -126t-125 -51q-77 0 -126.5 47.5t-49.5 120.5zM461 1253q0 74 50 125.5t126 51.5q77 0 125.5 -47.5t48.5 -120.5q0 -75 -49 -126t-125 -51q-77 0 -126.5 47.5t-49.5 120.5z" />
<glyph unicode="&#xa9;" horiz-adv-x="1611" d="M49 672q0 214 98 384.5t270.5 265.5t387.5 95t387.5 -95t270.5 -265.5t98 -384.5t-98 -384t-270.5 -265t-387.5 -95t-387.5 95t-270.5 265t-98 384zM184 672q0 -281 171.5 -457t449.5 -176t449 176t171 457t-171 458t-449 177t-449.5 -177t-171.5 -458zM432 668 q0 177 106 287t257 110q144 0 213 -88l24 86h113v-297h-129q-32 103 -78 151t-115 48q-161 0 -161 -283q0 -146 49 -211t143 -65q148 0 180 196h121q-14 -147 -95.5 -231t-234.5 -84q-180 0 -286.5 103t-106.5 278z" />
<glyph unicode="&#xaa;" horiz-adv-x="907" d="M45 827q0 68 45 113q37 37 102.5 62.5t194.5 41.5q62 9 78 15v61q0 64 -29 92.5t-86 28.5q-37 0 -69 -14q32 -26 32 -76q0 -39 -34 -65.5t-82 -26.5q-59 0 -91 30.5t-32 77.5q0 92 100 140.5t244 48.5q297 0 297 -250v-275q0 -36 30 -36q29 0 41 71l86 -20 q-19 -107 -65.5 -154t-132.5 -47q-151 0 -174 146h-8q-34 -79 -90.5 -112.5t-139.5 -33.5q-94 0 -155.5 49.5t-61.5 132.5zM299 860q0 -35 19 -57.5t57 -22.5q43 0 66.5 41.5t23.5 112.5v45q-4 -2 -11.5 -3t-21 -3t-26.5 -4q-59 -12 -83 -38t-24 -71z" />
<glyph unicode="&#xab;" horiz-adv-x="1085" d="M35 469q0 41 47 80l389 321l86 -69l-209 -328l209 -338l-86 -69l-389 323q-47 39 -47 80zM489 469q0 40 48 80l389 321l88 -69l-211 -328l211 -338l-88 -69l-389 323q-48 40 -48 80z" />
<glyph unicode="&#xad;" horiz-adv-x="718" d="M92 410v223h535v-223h-535z" />
<glyph unicode="&#xae;" horiz-adv-x="1024" d="M51 958q0 198 130.5 326.5t330.5 128.5q199 0 330 -129t131 -326t-131 -324.5t-330 -127.5q-200 0 -330.5 127.5t-130.5 324.5zM145 958q0 -166 101 -269t266 -103t266 103t101 269q0 167 -101 271t-266 104t-266 -104t-101 -271zM289 737v66h55v319h-55v66h260 q94 0 139 -33.5t45 -83.5q0 -99 -149 -115v-2q65 -4 91.5 -28t33.5 -70l2 -16q3 -24 6.5 -30.5t13.5 -6.5q14 0 27 45l45 -12q-21 -109 -113 -109q-61 0 -86.5 31t-25.5 94v10q0 36 -12.5 51t-45.5 15h-47v-125h59v-66h-243zM473 989h53q37 0 53.5 15t16.5 53t-14 52.5 t-56 14.5h-53v-135z" />
<glyph unicode="&#xaf;" horiz-adv-x="780" d="M63 1098v219h654v-219h-654z" />
<glyph unicode="&#xb0;" horiz-adv-x="831" d="M49 1038q0 145 102.5 243.5t266.5 98.5q168 0 266 -95t98 -241t-101 -244t-263 -98q-171 0 -270 94.5t-99 241.5zM260 1042q0 -93 44.5 -142.5t117.5 -49.5q69 0 110 49t41 141q0 93 -44 143t-117 50q-69 0 -110.5 -49.5t-41.5 -141.5z" />
<glyph unicode="&#xb1;" horiz-adv-x="1103" d="M152 74v164h800v-164h-800zM152 653v164h309v309h182v-309h309v-164h-309v-315h-182v315h-309z" />
<glyph unicode="&#xb4;" horiz-adv-x="575" d="M68 1098l88 231q22 58 37.5 91t40 68t55.5 50.5t73 15.5q62 0 105 -40.5t43 -94.5q0 -59 -32.5 -102t-102.5 -96l-160 -123h-147z" />
<glyph unicode="&#xb6;" horiz-adv-x="1335" d="M59 801q0 222 164 348.5t469 126.5h598v-186h-135v-1323h-188v1327h-129v-1327h-189v559q-172 1 -304 54.5t-209 161.5t-77 259z" />
<glyph unicode="&#xb7;" horiz-adv-x="567" d="M80 659q0 87 59 146t148 59q86 0 144 -57.5t58 -142.5q0 -87 -58.5 -146t-147.5 -59q-86 0 -144.5 57.5t-58.5 142.5z" />
<glyph unicode="&#xb8;" horiz-adv-x="739" d="M4 -449l68 111q99 -39 190 -39q90 0 90 49q0 30 -40.5 48t-121.5 18q-29 0 -49 -4l-53 102l234 180h159l-131 -131l4 -8q125 -16 184.5 -66t59.5 -122q0 -95 -76.5 -150t-218.5 -55q-174 0 -299 67z" />
<glyph unicode="&#xba;" horiz-adv-x="837" d="M35 997q0 157 110.5 258t274.5 101q170 0 276.5 -97t106.5 -255q0 -157 -109.5 -258t-273.5 -101q-170 0 -277.5 97.5t-107.5 254.5zM311 999q0 -133 26.5 -186t86.5 -53q57 0 80.5 53.5t23.5 187.5t-26 187t-86 53q-57 0 -81 -54t-24 -188z" />
<glyph unicode="&#xbb;" horiz-adv-x="1085" d="M72 135l211 328l-211 338l88 69l389 -323q47 -39 47 -80t-47 -80l-389 -321zM528 135l209 328l-209 338l86 69l390 -323q47 -39 47 -80t-47 -80l-390 -321z" />
<glyph unicode="&#xbf;" horiz-adv-x="1048" d="M57 334q0 62 15.5 111.5t45.5 86t59.5 60.5t70.5 49q42 26 64.5 40t56.5 40t54 48.5t40.5 55.5t32.5 70h168q1 -103 -26.5 -175t-84.5 -157q-38 -58 -53 -83t-30 -70t-15 -93q0 -188 176 -188q51 0 91.5 15.5t59.5 43.5q-59 18 -93 59.5t-34 100.5q0 71 46.5 118.5 t129.5 47.5q84 0 136.5 -54t52.5 -147q0 -146 -128.5 -247t-348.5 -101q-221 0 -353.5 105t-132.5 264zM373 1202q0 84 59 141.5t148 57.5q86 0 144 -56.5t58 -138.5q0 -84 -59 -141t-148 -57q-86 0 -144 56t-58 138z" />
<glyph unicode="&#xc0;" d="M2 0v197h150l417 1159h392l423 -1159h150v-197h-741v197h170l-72 215h-449l-71 -215h170v-197h-539zM434 1804q0 54 43 94.5t105 40.5q42 0 73 -15.5t55.5 -50.5t40 -68t37.5 -91l89 -231h-148l-160 123q-70 53 -102.5 96t-32.5 102zM502 592h327l-159 483h-8z" />
<glyph unicode="&#xc1;" d="M2 0v197h150l417 1159h392l423 -1159h150v-197h-741v197h170l-72 215h-449l-71 -215h170v-197h-539zM502 592h327l-159 483h-8zM672 1483l88 231q17 46 29.5 74t31.5 60t38 49.5t46.5 29.5t61.5 12q62 0 104.5 -40.5t42.5 -94.5q0 -59 -32.5 -102t-102.5 -96l-160 -123 h-147z" />
<glyph unicode="&#xc2;" d="M2 0v197h150l417 1159h392l423 -1159h150v-197h-741v197h170l-72 215h-449l-71 -215h170v-197h-539zM406 1483l266 415h200l261 -415h-207l-160 170l-154 -170h-206zM502 592h327l-159 483h-8z" />
<glyph unicode="&#xc3;" d="M2 0v197h150l417 1159h392l423 -1159h150v-197h-741v197h170l-72 215h-449l-71 -215h170v-197h-539zM371 1470q11 185 64.5 274t176.5 89q54 0 120.5 -24.5t124 -49t91.5 -24.5q28 0 43 23t25 83h151q-11 -185 -64.5 -273.5t-176.5 -88.5q-54 0 -120.5 24.5t-124 49 t-91.5 24.5q-28 0 -42.5 -23.5t-25.5 -83.5h-151zM502 592h327l-159 483h-8z" />
<glyph unicode="&#xc4;" d="M2 0v197h150l417 1159h392l423 -1159h150v-197h-741v197h170l-72 215h-449l-71 -215h170v-197h-539zM379 1638q0 74 50 125.5t126 51.5q77 0 125.5 -47.5t48.5 -120.5q0 -75 -49 -126t-125 -51q-77 0 -126.5 47.5t-49.5 120.5zM502 592h327l-159 483h-8zM807 1638 q0 74 50 125.5t126 51.5q77 0 125.5 -47.5t48.5 -120.5q0 -75 -49 -126t-125 -51q-77 0 -126.5 47.5t-49.5 120.5z" />
<glyph unicode="&#xc5;" d="M2 0v197h150l415 1153q-88 63 -88 174q0 104 80 178t209 74q131 0 209 -71.5t78 -176.5q0 -111 -92 -178q0 1 105.5 -287.5t210.5 -576.5l105 -289h150v-197h-741v197h170l-72 215h-449l-71 -215h170v-197h-539zM502 592h329l-161 483h-8zM664 1528q0 -66 30 -100.5 t76 -34.5q45 0 72.5 34t27.5 99q0 66 -29.5 100.5t-76.5 34.5q-44 0 -72 -34t-28 -99z" />
<glyph unicode="&#xc6;" horiz-adv-x="2228" d="M-29 0v197h135l639 954h-188v197h1569v-498h-211q-17 105 -32.5 160.5t-45 91t-68.5 45.5t-110 10h-301v-383h98q72 0 91.5 29t37.5 151h182v-551h-182q-14 118 -36 149.5t-93 31.5h-98v-394h293q56 0 94.5 6t68 25.5t47 42.5t31.5 69.5t22.5 93.5t18.5 128h211v-555 h-1339v197h166v235h-467l-152 -239h150v-193h-531zM618 612h353v521h-21z" />
<glyph unicode="&#xc7;" horiz-adv-x="1439" d="M72 659q0 159 53 295.5t142.5 229t209.5 144.5t252 52q260 0 387 -161l45 157h205v-540h-236q-59 190 -141.5 276t-206.5 86q-69 0 -121.5 -27.5t-92.5 -87t-60.5 -160t-20.5 -239.5q0 -266 90.5 -385t260.5 -119q134 0 215.5 94t111.5 265h219q-26 -246 -151.5 -394 t-360.5 -172l-86 -88l5 -8q125 -16 184 -66t59 -122q0 -95 -76.5 -150t-218.5 -55q-174 0 -299 67l68 111q99 -39 190 -39q90 0 90 49q0 30 -40.5 48t-120.5 18q-29 0 -49 -4l-54 102l174 135q-291 25 -458.5 208.5t-167.5 479.5z" />
<glyph unicode="&#xc8;" horiz-adv-x="1474" d="M51 0v197h166v954h-166v197h1321v-498h-211q-17 105 -32.5 160.5t-45 91t-68.5 45.5t-110 10h-301v-383h98q72 0 91.5 29t37.5 151h183v-551h-183q-14 118 -36 149.5t-93 31.5h-98v-394h293q48 0 83 6t62.5 16t46.5 32t33 46t24.5 67.5t17.5 86t16 111.5h211v-555h-1340z M444 1804q0 54 43 94.5t105 40.5q34 0 61.5 -12t46.5 -29.5t38 -49.5t31.5 -60t29.5 -74l88 -231h-148l-159 123q-71 53 -103.5 96t-32.5 102z" />
<glyph unicode="&#xc9;" horiz-adv-x="1474" d="M51 0v197h166v954h-166v197h1321v-498h-211q-17 105 -32.5 160.5t-45 91t-68.5 45.5t-110 10h-301v-383h98q72 0 91.5 29t37.5 151h183v-551h-183q-14 118 -36 149.5t-93 31.5h-98v-394h293q48 0 83 6t62.5 16t46.5 32t33 46t24.5 67.5t17.5 86t16 111.5h211v-555h-1340z M682 1483l88 231q17 46 29.5 74t31.5 60t38 49.5t46.5 29.5t61.5 12q62 0 104.5 -40.5t42.5 -94.5q0 -59 -32.5 -102t-102.5 -96l-160 -123h-147z" />
<glyph unicode="&#xca;" horiz-adv-x="1474" d="M51 0v197h166v954h-166v197h1321v-498h-211q-17 105 -32.5 160.5t-45 91t-68.5 45.5t-110 10h-301v-383h98q72 0 91.5 29t37.5 151h183v-551h-183q-14 118 -36 149.5t-93 31.5h-98v-394h293q48 0 83 6t62.5 16t46.5 32t33 46t24.5 67.5t17.5 86t16 111.5h211v-555h-1340z M416 1483l266 415h201l260 -415h-207l-160 170l-153 -170h-207z" />
<glyph unicode="&#xcb;" horiz-adv-x="1474" d="M51 0v197h166v954h-166v197h1321v-498h-211q-17 105 -32.5 160.5t-45 91t-68.5 45.5t-110 10h-301v-383h98q72 0 91.5 29t37.5 151h183v-551h-183q-14 118 -36 149.5t-93 31.5h-98v-394h293q48 0 83 6t62.5 16t46.5 32t33 46t24.5 67.5t17.5 86t16 111.5h211v-555h-1340z M389 1638q0 74 50 125.5t126 51.5q77 0 125.5 -47.5t48.5 -120.5q0 -75 -49 -126t-125 -51q-77 0 -126.5 47.5t-49.5 120.5zM817 1638q0 74 50 125.5t126 51.5q77 0 125.5 -47.5t48.5 -120.5q0 -75 -49 -126t-125 -51q-77 0 -126.5 47.5t-49.5 120.5z" />
<glyph unicode="&#xcc;" horiz-adv-x="882" d="M76 0v197h172v954h-172v197h731v-197h-172v-954h172v-197h-731zM106 1804q0 54 43 94.5t105 40.5q34 0 61.5 -12t46.5 -29.5t38 -49.5t31.5 -60t29.5 -74l88 -231h-148l-159 123q-71 53 -103.5 96t-32.5 102z" />
<glyph unicode="&#xcd;" horiz-adv-x="882" d="M76 0v197h172v954h-172v197h731v-197h-172v-954h172v-197h-731zM344 1483l88 231q17 46 29.5 74t31.5 60t38 49.5t46.5 29.5t61.5 12q62 0 104.5 -40.5t42.5 -94.5q0 -59 -32.5 -102t-102.5 -96l-159 -123h-148z" />
<glyph unicode="&#xce;" horiz-adv-x="882" d="M76 0v197h172v954h-172v197h731v-197h-172v-954h172v-197h-731zM78 1483l266 415h201l260 -415h-207l-160 170l-153 -170h-207z" />
<glyph unicode="&#xcf;" horiz-adv-x="882" d="M51 1638q0 74 50 125.5t126 51.5q77 0 125.5 -47.5t48.5 -120.5q0 -75 -49 -126t-125 -51q-77 0 -126.5 47.5t-49.5 120.5zM76 0v197h172v954h-172v197h731v-197h-172v-954h172v-197h-731zM479 1638q0 74 50 125.5t126 51.5q77 0 125.5 -47.5t48.5 -120.5q0 -75 -49 -126 t-125 -51q-77 0 -126.5 47.5t-49.5 120.5z" />
<glyph unicode="&#xd0;" horiz-adv-x="1564" d="M51 0v197h166v407h-166v197h166v350h-166v197h619q208 0 366 -47.5t258 -136.5t149.5 -211.5t49.5 -276.5q0 -155 -50 -278t-149.5 -212.5t-255.5 -137.5t-360 -48h-627zM604 190h98q209 0 291 106t82 378q0 266 -86 374.5t-297 108.5h-88v-356h215v-197h-215v-414z" />
<glyph unicode="&#xd1;" horiz-adv-x="1605" d="M51 0v197h162v954h-162v197h629l524 -926h19v729h-172v197h530v-197h-162v-1163h-413l-578 1018h-18v-809h172v-197h-531zM442 1470q11 185 65 274t177 89q54 0 120.5 -24.5t124 -49t91.5 -24.5q28 0 42 23t25 83h152q-11 -185 -65 -273.5t-177 -88.5q-54 0 -120 24.5 t-123.5 49t-91.5 24.5q-28 0 -42.5 -23.5t-25.5 -83.5h-152z" />
<glyph unicode="&#xd2;" d="M72 670q0 212 92 374.5t252 249t362 86.5q207 0 367 -84.5t250 -244.5t90 -373t-92 -375.5t-252 -249t-363 -86.5q-207 0 -367 84.5t-249.5 244.5t-89.5 374zM444 1804q0 54 43 94.5t105 40.5q34 0 61.5 -12t46.5 -29.5t38 -49.5t31.5 -60t29.5 -74l88 -231h-148 l-159 123q-71 53 -103.5 96t-32.5 102zM487 674q0 -277 74.5 -400.5t224.5 -123.5q148 0 215.5 121.5t67.5 402.5q0 276 -74.5 400t-224.5 124q-148 0 -215.5 -122t-67.5 -402z" />
<glyph unicode="&#xd3;" d="M72 670q0 212 92 374.5t252 249t362 86.5q207 0 367 -84.5t250 -244.5t90 -373t-92 -375.5t-252 -249t-363 -86.5q-207 0 -367 84.5t-249.5 244.5t-89.5 374zM487 674q0 -277 74.5 -400.5t224.5 -123.5q148 0 215.5 121.5t67.5 402.5q0 276 -74.5 400t-224.5 124 q-148 0 -215.5 -122t-67.5 -402zM682 1483l88 231q17 46 29.5 74t31.5 60t38 49.5t46.5 29.5t61.5 12q62 0 104.5 -40.5t42.5 -94.5q0 -59 -32.5 -102t-102.5 -96l-160 -123h-147z" />
<glyph unicode="&#xd4;" d="M72 670q0 212 92 374.5t252 249t362 86.5q207 0 367 -84.5t250 -244.5t90 -373t-92 -375.5t-252 -249t-363 -86.5q-207 0 -367 84.5t-249.5 244.5t-89.5 374zM416 1483l266 415h201l260 -415h-207l-160 170l-153 -170h-207zM487 674q0 -277 74.5 -400.5t224.5 -123.5 q148 0 215.5 121.5t67.5 402.5q0 276 -74.5 400t-224.5 124q-148 0 -215.5 -122t-67.5 -402z" />
<glyph unicode="&#xd5;" d="M72 670q0 212 92 374.5t252 249t362 86.5q207 0 367 -84.5t250 -244.5t90 -373t-92 -375.5t-252 -249t-363 -86.5q-207 0 -367 84.5t-249.5 244.5t-89.5 374zM381 1470q11 185 65 274t177 89q54 0 120 -24.5t123.5 -49t91.5 -24.5q28 0 43 23t25 83h152 q-11 -185 -65 -273.5t-177 -88.5q-54 0 -120.5 24.5t-124 49t-91.5 24.5q-28 0 -42.5 -23.5t-25.5 -83.5h-151zM487 674q0 -277 74.5 -400.5t224.5 -123.5q148 0 215.5 121.5t67.5 402.5q0 276 -74.5 400t-224.5 124q-148 0 -215.5 -122t-67.5 -402z" />
<glyph unicode="&#xd6;" d="M72 670q0 212 92 374.5t252 249t362 86.5q207 0 367 -84.5t250 -244.5t90 -373t-92 -375.5t-252 -249t-363 -86.5q-207 0 -367 84.5t-249.5 244.5t-89.5 374zM389 1638q0 74 50 125.5t126 51.5q77 0 125.5 -47.5t48.5 -120.5q0 -75 -49 -126t-125 -51q-77 0 -126.5 47.5 t-49.5 120.5zM487 674q0 -277 74.5 -400.5t224.5 -123.5q148 0 215.5 121.5t67.5 402.5q0 276 -74.5 400t-224.5 124q-148 0 -215.5 -122t-67.5 -402zM817 1638q0 74 50 125.5t126 51.5q77 0 125.5 -47.5t48.5 -120.5q0 -75 -49 -126t-125 -51q-77 0 -126.5 47.5 t-49.5 120.5z" />
<glyph unicode="&#xd7;" horiz-adv-x="1064" d="M125 303l278 283l-278 282l137 138l270 -287l271 287l137 -138l-278 -282l278 -283l-137 -137l-271 287l-270 -287z" />
<glyph unicode="&#xd8;" d="M72 670q0 211 91.5 374t249.5 249.5t355 86.5q205 0 369 -88l88 125h235l-174 -233q199 -196 199 -506q0 -160 -53.5 -294t-147 -225t-221.5 -141.5t-275 -50.5q-202 0 -368 86l-88 -123h-236l174 232q-198 195 -198 508zM483 674q0 -139 15 -238l489 672q-68 94 -217 94 q-151 0 -219 -122.5t-68 -405.5zM569 238q69 -93 217 -93q151 0 219 122.5t68 406.5q0 129 -16 235z" />
<glyph unicode="&#xd9;" horiz-adv-x="1542" d="M31 1151v197h735v-197h-182v-627q0 -179 70 -253t214 -74q134 0 205 71q84 84 84 293v590h-168v197h533v-197h-158v-649q0 -113 -32.5 -208t-97.5 -169t-173 -116t-250 -42q-309 0 -461.5 134t-152.5 386v664h-166zM516 1804q0 54 43 94.5t105 40.5q42 0 73 -15.5 t55.5 -50.5t40 -68t37.5 -91l88 -231h-147l-160 123q-70 53 -102.5 96t-32.5 102z" />
<glyph unicode="&#xda;" horiz-adv-x="1542" d="M31 1151v197h735v-197h-182v-627q0 -179 70 -253t214 -74q134 0 205 71q84 84 84 293v590h-168v197h533v-197h-158v-649q0 -113 -32.5 -208t-97.5 -169t-173 -116t-250 -42q-309 0 -461.5 134t-152.5 386v664h-166zM754 1483l88 231q17 46 29.5 74t31.5 60t38 49.5 t46.5 29.5t61.5 12q62 0 104.5 -40.5t42.5 -94.5q0 -59 -32.5 -102t-102.5 -96l-160 -123h-147z" />
<glyph unicode="&#xdb;" horiz-adv-x="1542" d="M31 1151v197h735v-197h-182v-627q0 -179 70 -253t214 -74q134 0 205 71q84 84 84 293v590h-168v197h533v-197h-158v-649q0 -113 -32.5 -208t-97.5 -169t-173 -116t-250 -42q-309 0 -461.5 134t-152.5 386v664h-166zM487 1483l267 415h200l260 -415h-206l-160 170 l-154 -170h-207z" />
<glyph unicode="&#xdc;" horiz-adv-x="1542" d="M31 1151v197h735v-197h-182v-627q0 -179 70 -253t214 -74q134 0 205 71q84 84 84 293v590h-168v197h533v-197h-158v-649q0 -113 -32.5 -208t-97.5 -169t-173 -116t-250 -42q-309 0 -461.5 134t-152.5 386v664h-166zM461 1638q0 74 50 125.5t126 51.5q77 0 125.5 -47.5 t48.5 -120.5q0 -75 -49 -126t-125 -51q-77 0 -126.5 47.5t-49.5 120.5zM889 1638q0 74 50 125.5t126 51.5q77 0 125.5 -47.5t48.5 -120.5q0 -75 -49 -126t-125 -51q-77 0 -126.5 47.5t-49.5 120.5z" />
<glyph unicode="&#xdd;" horiz-adv-x="1411" d="M0 1151v197h729v-193h-139l231 -393l234 393h-156v193h539v-197h-146l-379 -590v-364h172v-197h-731v197h172v335l-397 619h-129zM682 1483l88 231q17 46 29.5 74t31.5 60t38 49.5t46.5 29.5t61.5 12q62 0 104.5 -40.5t42.5 -94.5q0 -59 -32.5 -102t-102.5 -96l-160 -123 h-147z" />
<glyph unicode="&#xde;" horiz-adv-x="1409" d="M51 0v197h166v954h-166v197h731v-197h-178v-94h164q159 0 275.5 -27t186.5 -78t103 -119t33 -155q0 -186 -143 -283.5t-455 -97.5h-164v-100h178v-197h-731zM604 487h119q124 0 181 44t57 147q0 102 -52.5 145t-185.5 43h-119v-379z" />
<glyph unicode="&#xdf;" horiz-adv-x="1384" d="M31 782v176h176v9q0 152 70.5 258.5t189.5 156.5t278 50q217 0 337 -74.5t120 -188.5q0 -42 -14 -75.5t-43.5 -60t-53 -42t-63.5 -37.5q-69 -39 -95 -63t-26 -62q0 -22 11.5 -41.5t41.5 -41.5t49.5 -34t67.5 -40q49 -27 81 -46.5t75.5 -54t68.5 -68.5t43.5 -82.5 t18.5 -103.5q0 -144 -107 -238.5t-292 -94.5q-162 0 -246 53.5t-84 148.5q0 62 40 106t105 44q73 0 114.5 -44t41.5 -112q0 -48 -14 -80q27 -10 51 -10q110 0 110 111q0 38 -14 69t-43.5 56t-55 41t-69.5 39q-59 31 -93.5 53t-69.5 53.5t-50.5 69.5t-15.5 86q0 39 15 80 t30.5 65t46.5 68q29 40 42.5 60.5t34 58.5t29.5 75t9 78q0 73 -42.5 114.5t-113.5 41.5q-176 0 -176 -240v-1069h-481v186h135v596h-170z" />
<glyph unicode="&#xe0;" horiz-adv-x="1173" d="M45 238q0 95 68 163q48 48 140.5 82t278.5 58q81 10 97 15t16 19v80q0 90 -41.5 130t-128.5 40q-61 0 -108 -20q45 -39 45 -107q0 -56 -45.5 -93.5t-112.5 -37.5q-82 0 -125 44.5t-43 111.5q0 89 71 151.5t177 89.5t235 27q117 0 200 -26.5t129 -76.5t66.5 -112 t20.5 -141v-420q0 -31 11.5 -42t33.5 -11q40 0 60 102l112 -28q-27 -135 -90 -197t-180 -62q-101 0 -166 54t-82 166h-10q-49 -120 -128.5 -170t-197.5 -50q-131 0 -217 71t-86 190zM229 1419q0 54 43 94.5t105 40.5q34 0 61.5 -12t46.5 -29.5t38 -49.5t31.5 -60t29.5 -74 l88 -231h-148l-159 123q-71 53 -103.5 96t-32.5 102zM393 283q0 -47 29 -80t88 -33q66 0 100.5 59t34.5 160v66q-8 -2 -36.5 -7t-55.5 -10q-88 -16 -124 -54.5t-36 -100.5z" />
<glyph unicode="&#xe1;" horiz-adv-x="1173" d="M45 238q0 95 68 163q48 48 140.5 82t278.5 58q81 10 97 15t16 19v80q0 90 -41.5 130t-128.5 40q-61 0 -108 -20q45 -39 45 -107q0 -56 -45.5 -93.5t-112.5 -37.5q-82 0 -125 44.5t-43 111.5q0 89 71 151.5t177 89.5t235 27q117 0 200 -26.5t129 -76.5t66.5 -112 t20.5 -141v-420q0 -31 11.5 -42t33.5 -11q40 0 60 102l112 -28q-27 -135 -90 -197t-180 -62q-101 0 -166 54t-82 166h-10q-49 -120 -128.5 -170t-197.5 -50q-131 0 -217 71t-86 190zM393 283q0 -47 29 -80t88 -33q66 0 100.5 59t34.5 160v66q-8 -2 -36.5 -7t-55.5 -10 q-88 -16 -124 -54.5t-36 -100.5zM467 1098l88 231q17 46 29.5 74t31.5 60t38 49.5t46.5 29.5t61.5 12q62 0 104.5 -40.5t42.5 -94.5q0 -59 -32.5 -102t-102.5 -96l-160 -123h-147z" />
<glyph unicode="&#xe2;" horiz-adv-x="1173" d="M45 238q0 95 68 163q48 48 140.5 82t278.5 58q81 10 97 15t16 19v80q0 90 -41.5 130t-128.5 40q-61 0 -108 -20q45 -39 45 -107q0 -56 -45.5 -93.5t-112.5 -37.5q-82 0 -125 44.5t-43 111.5q0 89 71 151.5t177 89.5t235 27q117 0 200 -26.5t129 -76.5t66.5 -112 t20.5 -141v-420q0 -31 11.5 -42t33.5 -11q40 0 60 102l112 -28q-27 -135 -90 -197t-180 -62q-101 0 -166 54t-82 166h-10q-49 -120 -128.5 -170t-197.5 -50q-131 0 -217 71t-86 190zM201 1098l266 415h201l260 -415h-207l-160 170l-153 -170h-207zM393 283q0 -47 29 -80 t88 -33q66 0 100.5 59t34.5 160v66q-8 -2 -36.5 -7t-55.5 -10q-88 -16 -124 -54.5t-36 -100.5z" />
<glyph unicode="&#xe3;" horiz-adv-x="1173" d="M45 238q0 95 68 163q48 48 140.5 82t278.5 58q81 10 97 15t16 19v80q0 90 -41.5 130t-128.5 40q-61 0 -108 -20q45 -39 45 -107q0 -56 -45.5 -93.5t-112.5 -37.5q-82 0 -125 44.5t-43 111.5q0 89 71 151.5t177 89.5t235 27q117 0 200 -26.5t129 -76.5t66.5 -112 t20.5 -141v-420q0 -31 11.5 -42t33.5 -11q40 0 60 102l112 -28q-27 -135 -90 -197t-180 -62q-101 0 -166 54t-82 166h-10q-49 -120 -128.5 -170t-197.5 -50q-131 0 -217 71t-86 190zM166 1085q11 185 65 274t177 89q54 0 120 -24.5t123.5 -49t91.5 -24.5q28 0 43 23t25 83 h152q-11 -185 -65 -273.5t-177 -88.5q-54 0 -120.5 24.5t-124 49t-91.5 24.5q-28 0 -42.5 -23.5t-25.5 -83.5h-151zM393 283q0 -47 29 -80t88 -33q66 0 100.5 59t34.5 160v66q-8 -2 -36.5 -7t-55.5 -10q-88 -16 -124 -54.5t-36 -100.5z" />
<glyph unicode="&#xe4;" horiz-adv-x="1173" d="M45 238q0 95 68 163q48 48 140.5 82t278.5 58q81 10 97 15t16 19v80q0 90 -41.5 130t-128.5 40q-61 0 -108 -20q45 -39 45 -107q0 -56 -45.5 -93.5t-112.5 -37.5q-82 0 -125 44.5t-43 111.5q0 89 71 151.5t177 89.5t235 27q117 0 200 -26.5t129 -76.5t66.5 -112 t20.5 -141v-420q0 -31 11.5 -42t33.5 -11q40 0 60 102l112 -28q-27 -135 -90 -197t-180 -62q-101 0 -166 54t-82 166h-10q-49 -120 -128.5 -170t-197.5 -50q-131 0 -217 71t-86 190zM174 1253q0 74 50 125.5t126 51.5q77 0 125.5 -47.5t48.5 -120.5q0 -75 -49 -126t-125 -51 q-77 0 -126.5 47.5t-49.5 120.5zM393 283q0 -47 29 -80t88 -33q66 0 100.5 59t34.5 160v66q-8 -2 -36.5 -7t-55.5 -10q-88 -16 -124 -54.5t-36 -100.5zM602 1253q0 74 50 125.5t126 51.5q77 0 125.5 -47.5t48.5 -120.5q0 -75 -49 -126t-125 -51q-77 0 -126.5 47.5 t-49.5 120.5z" />
<glyph unicode="&#xe5;" horiz-adv-x="1173" d="M45 238q0 95 68 163q48 48 140.5 82t278.5 58q81 10 97 15t16 19v80q0 90 -41.5 130t-128.5 40q-61 0 -108 -20q45 -39 45 -107q0 -56 -45.5 -93.5t-112.5 -37.5q-82 0 -125 44.5t-43 111.5q0 89 71 151.5t177 89.5t235 27q117 0 200 -26.5t129 -76.5t66.5 -112 t20.5 -141v-420q0 -31 11.5 -42t33.5 -11q40 0 60 102l112 -28q-27 -135 -90 -197t-180 -62q-101 0 -166 54t-82 166h-10q-49 -120 -128.5 -170t-197.5 -50q-131 0 -217 71t-86 190zM276 1333q0 104 80 178t209 74q131 0 209 -71.5t78 -176.5q0 -104 -79.5 -178t-207.5 -74 q-133 0 -211 72t-78 176zM393 283q0 -47 29 -80t88 -33q66 0 100.5 59t34.5 160v66q-8 -2 -36.5 -7t-55.5 -10q-88 -16 -124 -54.5t-36 -100.5zM461 1337q0 -66 30 -100.5t76 -34.5q45 0 73 34t28 99q0 66 -30 100.5t-77 34.5q-44 0 -72 -34t-28 -99z" />
<glyph unicode="&#xe6;" horiz-adv-x="1685" d="M45 238q0 95 68 163q48 48 140.5 82t278.5 58q81 10 97 15t16 19v80q0 90 -41.5 130t-128.5 40q-61 0 -108 -20q45 -39 45 -107q0 -56 -45.5 -93.5t-112.5 -37.5q-82 0 -125 44.5t-43 111.5t40 120t107.5 84.5t148 47.5t167.5 16q216 0 301 -108q117 108 307 108 q238 0 361.5 -150t109.5 -407h-653q4 -81 21.5 -135.5t49 -85t72 -43t96.5 -12.5q86 0 138.5 38.5t79.5 125.5h184q-59 -345 -440 -345q-177 0 -295.5 61.5t-171.5 178.5q-34 -116 -120 -178t-220 -62q-145 0 -234.5 70.5t-89.5 190.5zM393 283q0 -47 29 -80t88 -33 q66 0 100.5 59t34.5 160v66q-8 -2 -36.5 -7t-55.5 -10q-88 -16 -124 -54.5t-36 -100.5zM975 575h319q-6 148 -43 206.5t-112 58.5t-116 -60.5t-48 -204.5z" />
<glyph unicode="&#xe7;" horiz-adv-x="1079" d="M51 467q0 236 150.5 380t396.5 144q110 0 197.5 -29.5t138.5 -77.5t77.5 -105t26.5 -117q0 -82 -46 -132.5t-130 -50.5q-77 0 -121.5 45t-44.5 111q0 49 25.5 82.5t64.5 48.5q-49 59 -145 59q-100 0 -161.5 -90.5t-61.5 -247.5q0 -144 57 -229.5t164 -85.5q154 0 211 166 h186q-28 -137 -110.5 -230t-218.5 -120l-103 -103l4 -8q125 -16 184.5 -66t59.5 -122q0 -95 -76.5 -150t-218.5 -55q-174 0 -299 67l68 111q99 -39 190 -39q90 0 90 49q0 30 -40.5 48t-121.5 18q-29 0 -49 -4l-53 102l186 144q-224 17 -350.5 147.5t-126.5 339.5z" />
<glyph unicode="&#xe8;" horiz-adv-x="1116" d="M51 475q0 222 148.5 369t373.5 147q251 0 375.5 -149t110.5 -408h-653q4 -81 21.5 -135.5t49 -85t72 -43t96.5 -12.5q86 0 138 38.5t79 125.5h185q-25 -161 -134.5 -253t-320.5 -92q-248 0 -394.5 135t-146.5 363zM250 1419q0 54 42.5 94.5t104.5 40.5q34 0 61.5 -12 t46.5 -29.5t38 -49.5t31.5 -60t29.5 -74l88 -231h-147l-160 123q-70 53 -102.5 96t-32.5 102zM406 575h319q-6 148 -43.5 206.5t-112.5 58.5q-74 0 -115 -60.5t-48 -204.5z" />
<glyph unicode="&#xe9;" horiz-adv-x="1116" d="M51 475q0 222 148.5 369t373.5 147q251 0 375.5 -149t110.5 -408h-653q4 -81 21.5 -135.5t49 -85t72 -43t96.5 -12.5q86 0 138 38.5t79 125.5h185q-25 -161 -134.5 -253t-320.5 -92q-248 0 -394.5 135t-146.5 363zM406 575h319q-6 148 -43.5 206.5t-112.5 58.5 q-74 0 -115 -60.5t-48 -204.5zM487 1098l88 231q17 46 29.5 74t31.5 60t38 49.5t46.5 29.5t61.5 12q62 0 105 -40.5t43 -94.5q0 -59 -32.5 -102t-102.5 -96l-160 -123h-148z" />
<glyph unicode="&#xea;" horiz-adv-x="1116" d="M51 475q0 222 148.5 369t373.5 147q251 0 375.5 -149t110.5 -408h-653q4 -81 21.5 -135.5t49 -85t72 -43t96.5 -12.5q86 0 138 38.5t79 125.5h185q-25 -161 -134.5 -253t-320.5 -92q-248 0 -394.5 135t-146.5 363zM221 1098l266 415h201l260 -415h-207l-159 170 l-154 -170h-207zM406 575h319q-6 148 -43.5 206.5t-112.5 58.5q-74 0 -115 -60.5t-48 -204.5z" />
<glyph unicode="&#xeb;" horiz-adv-x="1116" d="M51 475q0 222 148.5 369t373.5 147q251 0 375.5 -149t110.5 -408h-653q4 -81 21.5 -135.5t49 -85t72 -43t96.5 -12.5q86 0 138 38.5t79 125.5h185q-25 -161 -134.5 -253t-320.5 -92q-248 0 -394.5 135t-146.5 363zM195 1253q0 74 50 125.5t126 51.5q77 0 125.5 -47.5 t48.5 -120.5q0 -75 -49 -126t-125 -51q-77 0 -126.5 47.5t-49.5 120.5zM406 575h319q-6 148 -43.5 206.5t-112.5 58.5q-74 0 -115 -60.5t-48 -204.5zM623 1253q0 74 50 125.5t126 51.5q77 0 125.5 -47.5t48.5 -120.5q0 -75 -49 -126t-125 -51q-77 0 -126.5 47.5t-49.5 120.5 z" />
<glyph unicode="&#xec;" horiz-adv-x="731" d="M4 1419q0 54 43 94.5t105 40.5q42 0 73 -15.5t55.5 -50.5t40 -68t37.5 -91l88 -231h-147l-160 123q-70 53 -102.5 96t-32.5 102zM55 0v186h150v596h-150v187h496v-783h149v-186h-645z" />
<glyph unicode="&#xed;" horiz-adv-x="731" d="M55 0v186h150v596h-150v187h496v-783h149v-186h-645zM242 1098l88 231q17 46 29.5 74t31.5 60t38 49.5t46.5 29.5t61.5 12q62 0 104.5 -40.5t42.5 -94.5q0 -59 -32.5 -102t-102.5 -96l-160 -123h-147z" />
<glyph unicode="&#xee;" horiz-adv-x="731" d="M-25 1098l267 415h200l260 -415h-206l-160 170l-154 -170h-207zM55 0v186h150v596h-150v187h496v-783h149v-186h-645z" />
<glyph unicode="&#xef;" horiz-adv-x="731" d="M-51 1253q0 74 50 125.5t126 51.5q77 0 125.5 -47.5t48.5 -120.5q0 -75 -49 -126t-125 -51q-77 0 -126.5 47.5t-49.5 120.5zM55 0v186h150v596h-150v187h496v-783h149v-186h-645zM377 1253q0 74 50 125.5t126 51.5q77 0 125.5 -47.5t48.5 -120.5q0 -75 -49 -126t-125 -51 q-77 0 -126.5 47.5t-49.5 120.5z" />
<glyph unicode="&#xf0;" horiz-adv-x="1191" d="M51 469q0 214 110 337.5t294 123.5q205 0 299 -135q-24 156 -107 307l-262 -92l-47 131l229 82q-67 86 -161 168l229 36q110 -78 160 -124l237 86l47 -132l-176 -63q230 -268 230 -610q0 -155 -42 -273.5t-117 -190.5t-173 -107.5t-217 -35.5q-245 0 -389 133t-144 359z M422 453q0 -178 39 -251t129 -73q87 0 122.5 73.5t35.5 252.5q0 170 -42 236.5t-137 66.5q-77 0 -112 -68t-35 -237z" />
<glyph unicode="&#xf1;" horiz-adv-x="1333" d="M55 0v186h135v596h-135v187h457v-258q93 280 346 280q164 0 237.5 -96t73.5 -260v-449h134v-186h-578v186h98v420q0 94 -41 135q-31 31 -88 31q-66 0 -111.5 -59t-45.5 -146v-381h94v-186h-576zM289 1085q11 185 64.5 274t176.5 89q54 0 120.5 -24.5t124 -49t91.5 -24.5 q28 0 43 23t25 83h151q-11 -185 -64.5 -273.5t-176.5 -88.5q-54 0 -120.5 24.5t-124 49t-91.5 24.5q-28 0 -42.5 -23.5t-25.5 -83.5h-151z" />
<glyph unicode="&#xf2;" horiz-adv-x="1181" d="M51 479q0 148 72 265.5t195.5 182t273.5 64.5q235 0 386.5 -139t151.5 -363q0 -223 -155 -367.5t-385 -144.5q-235 0 -387 139t-152 363zM256 1419q0 54 42.5 94.5t104.5 40.5q34 0 61.5 -12t46.5 -29.5t38 -49.5t31.5 -60t29.5 -74l88 -231h-147l-160 123 q-70 53 -102.5 96t-32.5 102zM428 483q0 -193 39 -273.5t129 -80.5q87 0 122.5 80.5t35.5 275.5q0 193 -39 274t-129 81q-87 0 -122.5 -81t-35.5 -276z" />
<glyph unicode="&#xf3;" horiz-adv-x="1181" d="M51 479q0 148 72 265.5t195.5 182t273.5 64.5q235 0 386.5 -139t151.5 -363q0 -223 -155 -367.5t-385 -144.5q-235 0 -387 139t-152 363zM428 483q0 -193 39 -273.5t129 -80.5q87 0 122.5 80.5t35.5 275.5q0 193 -39 274t-129 81q-87 0 -122.5 -81t-35.5 -276zM494 1098 l88 231q22 58 37.5 91t40 68t55.5 50.5t73 15.5q62 0 105 -40.5t43 -94.5q0 -59 -32.5 -102t-102.5 -96l-160 -123h-147z" />
<glyph unicode="&#xf4;" horiz-adv-x="1181" d="M51 479q0 148 72 265.5t195.5 182t273.5 64.5q235 0 386.5 -139t151.5 -363q0 -223 -155 -367.5t-385 -144.5q-235 0 -387 139t-152 363zM227 1098l267 415h200l260 -415h-206l-160 170l-154 -170h-207zM428 483q0 -193 39 -273.5t129 -80.5q87 0 122.5 80.5t35.5 275.5 q0 193 -39 274t-129 81q-87 0 -122.5 -81t-35.5 -276z" />
<glyph unicode="&#xf5;" horiz-adv-x="1181" d="M51 479q0 148 72 265.5t195.5 182t273.5 64.5q235 0 386.5 -139t151.5 -363q0 -223 -155 -367.5t-385 -144.5q-235 0 -387 139t-152 363zM193 1085q11 185 64.5 274t176.5 89q54 0 120.5 -24.5t124 -49t91.5 -24.5q28 0 43 23t25 83h151q-11 -185 -64.5 -273.5 t-176.5 -88.5q-54 0 -120.5 24.5t-124 49t-91.5 24.5q-28 0 -42.5 -23.5t-25.5 -83.5h-151zM428 483q0 -193 39 -273.5t129 -80.5q87 0 122.5 80.5t35.5 275.5q0 193 -39 274t-129 81q-87 0 -122.5 -81t-35.5 -276z" />
<glyph unicode="&#xf6;" horiz-adv-x="1181" d="M51 479q0 148 72 265.5t195.5 182t273.5 64.5q235 0 386.5 -139t151.5 -363q0 -223 -155 -367.5t-385 -144.5q-235 0 -387 139t-152 363zM201 1253q0 74 50 125.5t126 51.5q77 0 125.5 -47.5t48.5 -120.5q0 -75 -49 -126t-125 -51q-77 0 -126.5 47.5t-49.5 120.5z M428 483q0 -193 39 -273.5t129 -80.5q87 0 122.5 80.5t35.5 275.5q0 193 -39 274t-129 81q-87 0 -122.5 -81t-35.5 -276zM629 1253q0 74 50 125.5t126 51.5q77 0 125.5 -47.5t48.5 -120.5q0 -75 -49 -126t-125 -51q-77 0 -126.5 47.5t-49.5 120.5z" />
<glyph unicode="&#xf7;" horiz-adv-x="1062" d="M80 498v178h903v-178h-903zM365 242q0 66 50 113.5t120 47.5q69 0 117 -46.5t48 -112.5t-50 -114t-120 -48q-69 0 -117 47t-48 113zM365 928q0 66 50 114t120 48q69 0 117 -47t48 -113t-50 -114t-120 -48q-69 0 -117 47t-48 113z" />
<glyph unicode="&#xf8;" horiz-adv-x="1181" d="M51 487q0 144 72 260t194.5 180t270.5 64q140 0 264 -59l76 96h200l-147 -184q149 -146 149 -363q0 -144 -72 -260t-194 -180t-270 -64q-138 0 -264 58l-76 -94h-201l148 182q-150 144 -150 364zM406 483q0 -92 4 -129l317 430q-39 64 -141 64q-96 0 -138 -85.5 t-42 -279.5zM453 184q39 -63 143 -63q96 0 138 85t42 279q0 55 -4 129z" />
<glyph unicode="&#xf9;" horiz-adv-x="1314" d="M31 782v187h479v-607q0 -96 41 -137q28 -28 84 -28q64 0 108.5 58.5t44.5 145.5v381h-133v187h480v-783h135v-186h-457v258q-93 -281 -342 -281q-161 0 -234 96.5t-73 260.5v448h-133zM291 1419q0 54 42.5 94.5t104.5 40.5q34 0 61.5 -12t46.5 -29.5t38 -49.5t31.5 -60 t29.5 -74l88 -231h-147l-160 123q-70 53 -102.5 96t-32.5 102z" />
<glyph unicode="&#xfa;" horiz-adv-x="1314" d="M31 782v187h479v-607q0 -96 41 -137q28 -28 84 -28q64 0 108.5 58.5t44.5 145.5v381h-133v187h480v-783h135v-186h-457v258q-93 -281 -342 -281q-161 0 -234 96.5t-73 260.5v448h-133zM528 1098l88 231q17 46 29.5 74t31.5 60t38 49.5t46.5 29.5t61.5 12q62 0 105 -40.5 t43 -94.5q0 -59 -32.5 -102t-102.5 -96l-160 -123h-148z" />
<glyph unicode="&#xfb;" horiz-adv-x="1314" d="M31 782v187h479v-607q0 -96 41 -137q28 -28 84 -28q64 0 108.5 58.5t44.5 145.5v381h-133v187h480v-783h135v-186h-457v258q-93 -281 -342 -281q-161 0 -234 96.5t-73 260.5v448h-133zM262 1098l266 415h201l260 -415h-207l-159 170l-154 -170h-207z" />
<glyph unicode="&#xfc;" horiz-adv-x="1314" d="M31 782v187h479v-607q0 -96 41 -137q28 -28 84 -28q64 0 108.5 58.5t44.5 145.5v381h-133v187h480v-783h135v-186h-457v258q-93 -281 -342 -281q-161 0 -234 96.5t-73 260.5v448h-133zM236 1253q0 74 50 125.5t126 51.5q77 0 125.5 -47.5t48.5 -120.5q0 -75 -49 -126 t-125 -51q-77 0 -126.5 47.5t-49.5 120.5zM664 1253q0 74 50 125.5t126 51.5q77 0 125.5 -47.5t48.5 -120.5q0 -75 -49 -126t-125 -51q-77 0 -126.5 47.5t-49.5 120.5z" />
<glyph unicode="&#xfd;" horiz-adv-x="1202" d="M2 782v187h645v-187h-139l215 -463l176 463h-117v187h428v-187h-114l-328 -753q-25 -58 -46.5 -100.5t-51.5 -91t-64 -81.5t-76.5 -61.5t-96 -42.5t-116.5 -14q-141 0 -216.5 65t-75.5 170q0 83 47.5 135.5t124.5 52.5q81 0 124.5 -53.5t43.5 -126.5q0 -42 -19 -82 q67 5 110.5 42t84.5 132l-414 809h-125zM549 1098l88 231q17 46 29.5 74t31.5 60t38 49.5t46.5 29.5t61.5 12q62 0 104.5 -40.5t42.5 -94.5q0 -59 -32.5 -102t-102.5 -96l-160 -123h-147z" />
<glyph unicode="&#xfe;" horiz-adv-x="1216" d="M6 -150h135v1381h-135v186h481v-639q94 213 301 213q146 0 246 -100q131 -131 131 -406q0 -116 -36.5 -218.5t-100.5 -166.5q-100 -100 -256 -100q-101 0 -174.5 41.5t-110.5 110.5v-302h168v-186h-649v186zM463 479q0 -133 47 -215t143 -82q76 0 110 76.5t34 230.5 q0 144 -36 215.5t-118 71.5q-88 0 -134 -84.5t-46 -212.5z" />
<glyph unicode="&#xff;" horiz-adv-x="1202" d="M2 782v187h645v-187h-139l215 -463l176 463h-117v187h428v-187h-114l-328 -753q-25 -58 -46.5 -100.5t-51.5 -91t-64 -81.5t-76.5 -61.5t-96 -42.5t-116.5 -14q-141 0 -216.5 65t-75.5 170q0 83 47.5 135.5t124.5 52.5q81 0 124.5 -53.5t43.5 -126.5q0 -42 -19 -82 q67 5 110.5 42t84.5 132l-414 809h-125zM256 1253q0 74 50 125.5t126 51.5q77 0 125.5 -47.5t48.5 -120.5q0 -75 -49 -126t-125 -51q-77 0 -126.5 47.5t-49.5 120.5zM684 1253q0 74 50 125.5t126 51.5q77 0 125.5 -47.5t48.5 -120.5q0 -75 -49 -126t-125 -51 q-77 0 -126.5 47.5t-49.5 120.5z" />
<glyph unicode="&#x152;" horiz-adv-x="2217" d="M72 672q0 155 50 278t149.5 212.5t255.5 137.5t360 48h1229v-498h-211q-17 105 -32.5 160.5t-45 91t-68.5 45.5t-110 10h-301v-383h98q72 0 91.5 29t37.5 151h182v-551h-182q-14 118 -36 149.5t-93 31.5h-98v-394h292q48 0 83 6t62.5 16t46.5 32t33 46t24.5 67.5t17.5 86 t16 111.5h211v-555h-1239q-208 0 -366 47.5t-258 136.5t-149.5 211.5t-49.5 276.5zM489 674q0 -266 86 -375t297 -109h89v967h-99q-142 0 -222 -46t-115.5 -149.5t-35.5 -287.5z" />
<glyph unicode="&#x153;" horiz-adv-x="1814" d="M51 479q0 147 72 265t192 182.5t263 64.5q245 0 364 -170q122 170 352 170q233 0 355 -150t108 -407h-653q4 -81 21.5 -135.5t49 -85t72 -43t96.5 -12.5q86 0 138.5 38.5t79.5 125.5h184q-28 -162 -131 -253.5t-287 -91.5q-276 0 -395 166q-60 -80 -152 -123t-205 -43 q-146 0 -265 62t-189 177.5t-70 262.5zM428 483q0 -193 39 -273.5t129 -80.5q87 0 122.5 80.5t35.5 275.5q0 193 -39 274t-129 81q-87 0 -122.5 -81t-35.5 -276zM1104 575h319q-6 148 -43 206.5t-112 58.5t-116 -60.5t-48 -204.5z" />
<glyph unicode="&#x178;" horiz-adv-x="1411" d="M0 1151v197h729v-193h-139l231 -393l234 393h-156v193h539v-197h-146l-379 -590v-364h172v-197h-731v197h172v335l-397 619h-129zM389 1638q0 74 50 125.5t126 51.5q77 0 125.5 -47.5t48.5 -120.5q0 -75 -49 -126t-125 -51q-77 0 -126.5 47.5t-49.5 120.5zM817 1638 q0 74 50 125.5t126 51.5q77 0 125.5 -47.5t48.5 -120.5q0 -75 -49 -126t-125 -51q-77 0 -126.5 47.5t-49.5 120.5z" />
<glyph unicode="&#x2c6;" horiz-adv-x="763" d="M18 1098l267 415h200l260 -415h-206l-160 170l-154 -170h-207z" />
<glyph unicode="&#x2dc;" horiz-adv-x="882" d="M45 1085q11 185 65 274t177 89q54 0 120.5 -24.5t124 -49t91.5 -24.5q28 0 42 23t25 83h152q-11 -185 -65 -273.5t-177 -88.5q-54 0 -120.5 24.5t-124 49t-91.5 24.5q-28 0 -42 -23.5t-25 -83.5h-152z" />
<glyph unicode="&#x2000;" horiz-adv-x="969" />
<glyph unicode="&#x2001;" horiz-adv-x="1939" />
<glyph unicode="&#x2002;" horiz-adv-x="969" />
<glyph unicode="&#x2003;" horiz-adv-x="1939" />
<glyph unicode="&#x2004;" horiz-adv-x="646" />
<glyph unicode="&#x2005;" horiz-adv-x="484" />
<glyph unicode="&#x2006;" horiz-adv-x="323" />
<glyph unicode="&#x2007;" horiz-adv-x="323" />
<glyph unicode="&#x2008;" horiz-adv-x="242" />
<glyph unicode="&#x2009;" horiz-adv-x="387" />
<glyph unicode="&#x200a;" horiz-adv-x="107" />
<glyph unicode="&#x2010;" horiz-adv-x="718" d="M92 410v223h535v-223h-535z" />
<glyph unicode="&#x2011;" horiz-adv-x="718" d="M92 410v223h535v-223h-535z" />
<glyph unicode="&#x2012;" horiz-adv-x="718" d="M92 410v223h535v-223h-535z" />
<glyph unicode="&#x2013;" horiz-adv-x="1075" d="M92 412v206h891v-206h-891z" />
<glyph unicode="&#x2014;" horiz-adv-x="1587" d="M92 412v206h1403v-206h-1403z" />
<glyph unicode="&#x2018;" horiz-adv-x="546" d="M49 940q0 163 110 283t308 174l49 -111q-133 -55 -205.5 -122t-89.5 -156l17 -9q30 45 92 45q63 0 102 -44.5t39 -118.5q0 -87 -55 -148t-142 -61q-102 0 -163.5 71.5t-61.5 196.5z" />
<glyph unicode="&#x2019;" horiz-adv-x="546" d="M31 766q133 55 205.5 122t89.5 156l-17 9q-30 -45 -92 -45q-63 0 -102 44.5t-39 118.5q0 87 54.5 148t141.5 61q102 0 164 -71.5t62 -196.5q0 -163 -110 -283t-308 -174z" />
<glyph unicode="&#x201a;" horiz-adv-x="546" d="M31 -244q133 55 205.5 122.5t89.5 156.5l-17 8q-30 -45 -92 -45q-63 0 -102 44.5t-39 119.5q0 87 54.5 148t141.5 61q102 0 164 -72t62 -197q0 -163 -110 -282.5t-308 -173.5z" />
<glyph unicode="&#x201c;" horiz-adv-x="1040" d="M49 940q0 163 110 283t308 174l49 -111q-133 -55 -205.5 -122t-89.5 -156l17 -9q30 45 92 45q63 0 102 -44.5t39 -118.5q0 -87 -55 -148t-142 -61q-102 0 -163.5 71.5t-61.5 196.5zM543 940q0 163 110 283t308 174l49 -111q-133 -55 -205.5 -122t-89.5 -156l16 -9 q30 45 92 45q64 0 103 -44.5t39 -118.5q0 -87 -55 -148t-142 -61q-102 0 -163.5 71.5t-61.5 196.5z" />
<glyph unicode="&#x201d;" horiz-adv-x="1040" d="M31 766q133 55 205.5 122t89.5 156l-17 9q-30 -45 -92 -45q-63 0 -102 44.5t-39 118.5q0 87 54.5 148t141.5 61q102 0 164 -71.5t62 -196.5q0 -163 -110 -283t-308 -174zM524 766q133 55 205.5 122t89.5 156l-16 9q-30 -45 -92 -45q-64 0 -103 44.5t-39 118.5 q0 87 55 148t142 61q102 0 163.5 -71.5t61.5 -196.5q0 -163 -110 -283t-308 -174z" />
<glyph unicode="&#x201e;" horiz-adv-x="1040" d="M31 -244q133 55 205.5 122.5t89.5 156.5l-17 8q-30 -45 -92 -45q-63 0 -102 44.5t-39 119.5q0 87 54.5 148t141.5 61q102 0 164 -72t62 -197q0 -163 -110 -282.5t-308 -173.5zM524 -244q133 55 205.5 122.5t89.5 156.5l-16 8q-30 -45 -92 -45q-63 0 -102.5 45t-39.5 119 q0 87 55 148t142 61q102 0 163.5 -72t61.5 -197q0 -163 -110 -282.5t-308 -173.5z" />
<glyph unicode="&#x2022;" horiz-adv-x="1003" d="M172 662q0 136 96.5 232.5t233.5 96.5q136 0 232.5 -96.5t96.5 -232.5t-96 -232t-233 -96t-233.5 96t-96.5 232z" />
<glyph unicode="&#x2026;" horiz-adv-x="1617" d="M70 162q0 86 57.5 144.5t144.5 58.5q84 0 141.5 -57.5t57.5 -141.5q0 -85 -58 -143t-145 -58q-84 0 -141 56.5t-57 140.5zM608 162q0 85 58 144t145 59q84 0 141.5 -57.5t57.5 -141.5q0 -85 -58 -143t-145 -58q-85 0 -142 57t-57 140zM1147 162q0 85 58 144t145 59 q84 0 141 -57.5t57 -141.5q0 -85 -57.5 -143t-144.5 -58q-85 0 -142 57t-57 140z" />
<glyph unicode="&#x202f;" horiz-adv-x="387" />
<glyph unicode="&#x2039;" horiz-adv-x="645" d="M35 469q0 45 47 82l405 321l86 -75l-215 -324l215 -332l-86 -75l-405 321q-47 37 -47 82z" />
<glyph unicode="&#x203a;" horiz-adv-x="645" d="M72 141l215 324l-215 332l86 75l405 -321q47 -37 47 -82t-47 -82l-405 -321z" />
<glyph unicode="&#x205f;" horiz-adv-x="484" />
<glyph unicode="&#x20ac;" horiz-adv-x="1386" d="M55 399v174h154v60q0 43 2 63h-156v174h183q59 215 219 338t405 123q190 0 321.5 -97t131.5 -233q0 -85 -50 -138.5t-137 -53.5q-81 0 -128.5 47t-47.5 117q0 89 78 137q-60 47 -170 47q-113 0 -176.5 -65t-87.5 -226h285v-170h-299v-61v-62h299v-170h-283 q25 -131 86.5 -184t171.5 -53q116 0 178 72.5t88 212.5h209q-30 -236 -156 -360t-364 -124q-243 0 -387 112t-191 320h-178z" />
<glyph unicode="&#x2122;" horiz-adv-x="1851" d="M53 1061v287h695v-287h-101q-31 121 -53.5 155.5t-69.5 34.5h-20v-440h110v-113h-428v113h111v440h-21q-47 0 -69 -34.5t-53 -155.5h-101zM805 698v113h84v424h-84v113h391l98 -324h15l88 324h379v-113h-88v-424h88v-113h-377v111h82v422h-15l-168 -533h-106l-176 533 h-15v-422h82v-111h-278z" />
<glyph unicode="&#x25fc;" horiz-adv-x="972" d="M0 0v973h973v-973h-973z" />
</font>
</defs>
</svg>
